/* XPM */
static char *d6167f621a2849bd91a42b326d5f90c0aVS5yw74P5Aewbsz[] = {
/* columns rows colors chars-per-pixel */
"64 64 256 2 ",
"   c None",
".  c #020101",
"X  c #0B0002",
"o  c #0C010A",
"O  c #0A0807",
"+  c #130002",
"@  c #1C0002",
"#  c #13010C",
"$  c #1C000C",
"%  c #1C0B07",
"&  c #180113",
"*  c #191009",
"=  c #250207",
"-  c #270115",
";  c #370B18",
":  c #3A1A32",
">  c #331828",
",  c #382538",
"<  c #302833",
"1  c #34321A",
"2  c #491332",
"3  c #4C2B31",
"4  c #682705",
"5  c #5B4B36",
"6  c #5B462C",
"7  c #654C3A",
"8  c #393847",
"9  c #4F3547",
"0  c #585659",
"q  c #52464B",
"w  c #704E59",
"e  c #685864",
"r  c #7B586A",
"t  c #784D65",
"y  c #77666B",
"u  c #76737D",
"i  c #736C71",
"p  c #5F5C61",
"a  c #933411",
"s  c #913421",
"d  c #A83C27",
"f  c #9A250E",
"g  c #984C13",
"h  c #A74E13",
"j  c #BB641A",
"k  c #9B4924",
"l  c #B35825",
"z  c #AC4D2B",
"x  c #B46531",
"c  c #C36832",
"v  c #A03F74",
"b  c #8E7256",
"n  c #AD7655",
"m  c #8A5C73",
"M  c #96577D",
"N  c #965271",
"B  c #AF567D",
"V  c #9C7C67",
"C  c #8A6677",
"Z  c #997778",
"A  c #9A6675",
"S  c #A76F7A",
"D  c #995250",
"F  c #CD7550",
"G  c #CC7761",
"H  c #9D9575",
"J  c #92836F",
"K  c #A58979",
"L  c #A6987A",
"P  c #AF8E72",
"I  c #D7945B",
"U  c #D6996D",
"Y  c #EE946E",
"T  c #DAA575",
"R  c #EAAA76",
"E  c #F6AD77",
"W  c #E5845C",
"Q  c #737380",
"!  c #B35786",
"~  c #996B84",
"^  c #927786",
"/  c #8E7889",
"(  c #AA6B86",
")  c #B36988",
"_  c #A8748A",
"`  c #A97A94",
"'  c #B87A97",
"]  c #B96997",
"[  c #BB79A5",
"{  c #905E80",
"}  c #C47098",
"|  c #CC6CAB",
" . c #CB67A4",
".. c #D36BA8",
"X. c #C974A3",
"o. c #D979A9",
"O. c #D97BB5",
"+. c #D275B2",
"@. c #EA74BB",
"#. c #E676B7",
"$. c #F276BD",
"%. c #E470AC",
"&. c #EB77C3",
"*. c #F578C3",
"=. c #9B8594",
"-. c #92918E",
";. c #AD9585",
":. c #B6988B",
">. c #A48898",
",. c #AA9498",
"<. c #BA9B98",
"1. c #B5879B",
"2. c #B7A89A",
"3. c #B2A48F",
"4. c #A797A5",
"5. c #BB95A9",
"6. c #ACAAAB",
"7. c #AAA8A6",
"8. c #B4A9A9",
"9. c #B7B3A5",
"0. c #B3AAB3",
"q. c #B6A6B4",
"w. c #B8B6B8",
"e. c #AEB4B1",
"r. c #C2899A",
"t. c #CA9991",
"y. c #DAB58A",
"u. c #CFAE8C",
"i. c #FEA885",
"p. c #E9BA8A",
"a. c #FBB787",
"s. c #F9BB97",
"d. c #E8B090",
"f. c #CB85A9",
"g. c #D785AB",
"h. c #DC99B5",
"j. c #D092B0",
"k. c #ED87B8",
"l. c #F488BD",
"z. c #EB9ABC",
"x. c #E698B7",
"c. c #F39BBD",
"v. c #F696BC",
"b. c #E180A6",
"n. c #CDB4AA",
"m. c #DCA6BD",
"M. c #C8B6B7",
"N. c #CAB2B0",
"B. c #E4A3BC",
"V. c #EBA3BD",
"C. c #F1B3AB",
"Z. c #ED9B8C",
"A. c #B9C3B8",
"S. c #DFC493",
"D. c #FDC48C",
"F. c #FCCB8D",
"G. c #EBC395",
"H. c #ECC499",
"J. c #FDCC94",
"K. c #F8C698",
"L. c #FCD19B",
"P. c #EFC383",
"I. c #D0C5B0",
"U. c #E6C5A6",
"Y. c #FACAA2",
"T. c #FFDCAB",
"R. c #FAD6A6",
"E. c #FFC8B7",
"W. c #F9D7B7",
"Q. c #EACFB3",
"!. c #FFE2AA",
"~. c #FFE4B5",
"^. c #FEE5BC",
"/. c #FFE9BE",
"(. c #FFF0BE",
"). c #BFBFC1",
"_. c #F48CC4",
"`. c #F887C4",
"'. c #EA9CC1",
"]. c #F495C3",
"[. c #FB95C3",
"{. c #F59CC3",
"}. c #FC9CC3",
"|. c #FE94CB",
" X c #FE9BCD",
".X c #F197C8",
"XX c #FE97D4",
"oX c #E889CA",
"OX c #D8B7C9",
"+X c #C6B7C1",
"@X c #EDA2C4",
"#X c #E6A7C3",
"$X c #F3A2C3",
"%X c #FBA3CC",
"&X c #F9A5C6",
"*X c #FFA5D2",
"=X c #EABBD7",
"-X c #F3BCDD",
";X c #F4BCD5",
":X c #ECB4CA",
">X c #F6BDE1",
",X c #DC84C2",
"<X c #BBC6C1",
"1X c #CBCBCC",
"2X c #C7C8C6",
"3X c #D2C8CC",
"4X c #D4D1CD",
"5X c #CBCDD1",
"6X c #D5CCD3",
"7X c #CBD2D2",
"8X c #CAD7D8",
"9X c #D3D3D4",
"0X c #D8D9DC",
"qX c #CDD0CF",
"wX c #EAC7D8",
"eX c #F3CCDC",
"rX c #F7C5DB",
"tX c #E7D2DE",
"yX c #F7CECF",
"uX c #FFE9C6",
"iX c #E4E3D9",
"pX c #FFEAD7",
"aX c #F4EAD7",
"sX c #D7DFE1",
"dX c #CDD8E0",
"fX c #F6C9E2",
"gX c #FFD4EB",
"hX c #FDDAED",
"jX c #F8D7E4",
"kX c #FADCF3",
"lX c #EFD2E6",
"zX c #DCE4E5",
"xX c #DCE8E9",
"cX c #E4EBEB",
"vX c #EBEBED",
"bX c #E5E6E6",
"nX c #F9ECEA",
"mX c #FBF6EB",
"MX c #EBEDF5",
"NX c #F2EDF2",
"BX c #FDEAF6",
"VX c #EBF2F3",
"CX c #EBF4F5",
"ZX c #F3F3F4",
"AX c #FDF4F4",
"SX c #FEFCF5",
"DX c #F5F5FA",
"FX c #FFF4FE",
"GX c #F6FDFD",
"HX c #FAFEFE",
"JX c #FFFEFF",
"KX c #FEFDFE",
"LX c #FEFCFE",
"PX c #F7F8F3",
"IX c #ECF4EF",
"UX c #DBE4DC",
/* pixels */
"                                                                                                                                ",
"                                                                                                                                ",
"                                                                                                                                ",
"                                                                                                                                ",
"                                                                                                                                ",
"                                                                                                                                ",
"                                                                                                                                ",
"                                                                                                                                ",
"                                                                                                                                ",
"                                                                                                                                ",
"                                X X X X X X                                             X X X # # X                             ",
"                              M.w.1X6X6X6X3X                                          4.+XM.6X6X3XtX+X                          ",
"                          X i bXbXJXLXJXJXLXX X                                   > X 0.vXcXJXJXJXLX6XX #                       ",
"                          w.2XVXDXHXJXLXDXJX3X6X                                  q.w.1XsXzXHXHXJXJXvX3X3X                      ",
"                      X w.cXCXHXHXHXJXJXJXLXJXLX8.#                           # # bXNXbXzXxXHXHXHXJXLXJXLXe X                   ",
"                      o 0.zXxXGXHXJXJXJXJXJXLXJX0.X                           < , -.-.w.zXzXxXcXDXHXJXLXNXi X                   ",
"                      X w.zXzXHXHXJXPXJXJXLXJXJX4.. . . . . o X X X . . . . . . . . O -.cX0X8XsXCXGXJXLXAXy X                   ",
"                      o w.zXxXGXHXJXLXLXLXJXJXJXiXw.2X2X2X5X+X3X2X2X1X1X2X2X2X5X1X1X2XiXVXVXCXVXHXJXDXJXNXi X                   ",
"                      . 7.cXxXHXJXJXLXSXLXFXLXLXLXLXJXJXJXJXPXSXJXJXJXJXLXSXJXJXFXFXLXJXHXHXHXGXDXJXDXJXDXq X                   ",
"                      w.bXCXCXcXCXvXvXZXAXJXJXJX4X7.0.7.0.0.8.8.0.0.q.q.8.7.6.0.+X5.q.0.w.e.7.e.vXJXJXJXPX9X4X4.r               ",
"                  q 3XNXVXHXHXsXdXxX0XvXJXJXLXLX7.. * * o # & X # # # # X X O o o & X X # X X + iXmXJXJXDXJXJXw.o               ",
"                X e 9XbXvXHXCXzXxXzX0XVXZXPXM.9.2.;.3.:.<.<.<.<.<.<.<.<.<.2.<.<.;.2.:.<.<.<.t.3.2.9.4XLXJXDXJX6.o               ",
"                  0 9XbXcXHXLX0X0XzX0XvXJXJX% + L U.p.G.K.p.H.H.G.G.H.H.U.U.s.H.Y.G.K.K.Y.s.K.G.b X 2.JXDXHXHXe.o               ",
"                  0 9XbXvXJXLXDXDXZXDX9X6.8.:.u.y.S.P.F.D.L.J.J.F.F.F.J.Y.Y.J.J.F.I I I W Y J.L.u.:.9.7.).VXHX6.O               ",
"                  0 7XzXVXJXJXJXJXHXHXI.X = d.K.G.y.D.!.~.~.~.~.!.!.!.T.~.~.T.T.T.n g z s G T.~.H.U.n.X e vXJX6.X               ",
"                . 0 7XzXVXJXDXvXMXDXHX2XX 6 G.p.H.L.J.U T y.y.y.d.R R U R.T.J.R T Y.E.E.yXE.R U K.W.n.X i DXJX6.X               ",
"                . 0 7XzXVXJXDXbX0XZXLX2X. 5 y.p.R.~.a.h l k a s f d l g G.uXE a x pXmXSXSXpXk l K.uXn.+ u DXHX6.X               ",
"                X 0 7XzXVXJXLXNXAXZXLXI.. 5 d.p.R.T.D.l F s.E.E.yXC.F l s.~.a.c G pXSXGXGXpXx c s.uXn.X u MXHX7.X               ",
"                X 0 7XxXVXJXJXJXJXPXHX2XO 7 s.a.Y.~.D.h G pXAXBXmXpXF h a.!.E x n pXSXHXJXpXx c D.uXn.+ u MXJX7.X               ",
"                X 0 1XxXVXJXJXJXLXJXJX1X. 3 a.a.R.T.D.g n yXFXBXSXpXF h K.T.E l n pXSXFXFXpXx j D.uXN.# u MXHX7.X               ",
"                X 0 7XzXVXJXJXLXJXJXHX2X. 5 p.a.H.~.a.g F E.nXmXAXyXF a Z.^.a.g n mXAXLXAXpXl j D.uXN.o Q MXHX7.X               ",
"                X 0 9XxXVXHXJXJXLXFXHXA.. 5 p.p.R.T.F.I I i.Y Z.C.Z.Y W d.T.D.T T C.C.C.C.s.Y Y K.uXN.X u VXHX6.X               ",
"                X p 7XzXVXHXHXJXLXFXJX<X. 1 U.H.R.T.R.R I F f z d d Y E p.!.L.a.a.z a k a x E a.W.pXM.X y NXJX8.X               ",
"                X 0 9XcXcXHXHXJXLXLXDXUXe.2.K V y.L.G.J.E a.Y Y i.i.s.a.p.R.R.L.K.a.i.a.i.a.J.K.u.,.9.9.w.PXJX7.o               ",
"                o 0 5XcXvXHXJXSXJXJXSXIXiXiX+ @ P R.S./.uX^.W.uX^.uX^.^.uX^.^.^.^.uXuX/.^.^.(./.J . -.bXiXHXGXe..               ",
"                X 0 0XbXNXJXAXJXJXPXHXIXIXiXM.n.L J H L H L ;.K H L H L ;.L L L L H H H H L L L 9.A.4XIXvXJXHX6.O               ",
"                  q tXNXBXLXFXJXLXHXHXGXHXJX0XbX-.. . . . X X X X . . . . . . . . X . . O . . . A.iXnXJXLXDXHXw..               ",
"                    >.=.OXtXhXFXJXLXJXJXLXLXVXGX0X2X7X2X1X9X2X6X1X2X1X1X2X7X5X1X1X1X1X2X1X1X1X4XNXnXjXjXwXM.0.                  ",
"                        ,.N.wXFXLXJXFXLXLXFXLXJXHXJXLXLXLXLXLXJXJXJXJXJXLXJXJXJXJXLXJXJXLXLXLXFXFXFXBXj.j.- X                   ",
"                          C 5.eXeXeXeXrXrXjXFXJXJXLXLXLXAXSXSXSXFXLXFXFXLXFXFXLXLXJXLXAXLXBXwXeXeXgXm.(                         ",
"                          @ t B.V.z.c.z.h.#XFXFXLXLXLXLXFXFXLXLXFXLXFXFXFXFXFXLXLXJXLXLXFXBXm.m.m.:X1.= 2                       ",
"                          ` ' ( ) } B o.%X@X;X-XwXwXrX-X-X-X-X-XfX>X-X-X>X>X-X-XrX=XfX=XrX;X( _ _ ~                             ",
"                            h.= @ @ = B *X.X} X.]  . . ...| | |  .| | | | |  .| .. . . .X.! ; = $ # C                           ",
"                          A ( r.1.1.1.h.]. X_._.`.|.`.$.*.*.&.&.&.&.&.&.&.@.@.$.$.*.@.`.|._.X.f.r & t C                         ",
"                        ( = D #X:XV.$X&X}.[. X X X X`.%.%.@.#.#.@.@.#.#.@.@.#.%.%.%.%._. X{.&X#Xr # 3 # 2                       ",
"                      Z ' _ j.x.x.z.&Xv.k.k.[.[.v.[.[.l.l.`.`.`.#.@.@.@.#.#.$.`.|.l.k.].{.$X$XB.C # t ~ _                       ",
"                    > @ r.;X:X$X*X X[.l.#.#.[.}.v.c.}.}.}. X[.`.%.@.@.@.#.#.`.XX X].%X{.c.c.c.V.m - m h.f.; @                   ",
"                C Z <.t.S A A S ) o.l...v ! ].{.$Xc.{.}.v.}.}.]._.`.@.@.$.`._. X.X{.{.c.{.{.c.V.m + w N A r.t.                  ",
"              ,.+ 3 n.Q.b @ @ @ = ) k.! ; 2 z.%X'.z.{.{.}.}.c.{.%X.Xo.o.[. X{.{.z.&Xv.v.}.v.c.@Xm + 3 @ 4 y.W.V +               ",
"              ,.+ 7 U.^.u.u.:.P :.S N ! ] ] '.'.@X@X%X{.{.$Xc.V.@X$Xz.k.}.}.z.$X$X$X}.}.}.c.V.#XC + b P U T G.V @               ",
"              <.+ 6 Q.uXuXpXpXQ.yXw @ t j.X.'.x.h.x.z.z.x.z.x.x.x.z.z.z.z.x.x.x.h.h.x.x.z.V.B.m.y X K W.U.H.W.J                 ",
"                    ;.;.;.K K Z Z t.M.OX:X;XgXhXjXrXrXgXkXhXgXhXgXgXgXhXgXgXgXgXhXjXhXrX;XrXrXwX^ X w V J J V                   ",
"                    > + + + + + X 4XnXkXkXkXFXFXnXlXhXBXFXFXFXFXFXFXFXFXFXFXFXFXLXLXLXBXlXhXhXjX/ X > + @ @ @                   ",
"                          ,.^ , O 8.OXOX=XwXwXjX6XOXrXfXfXlXlXeXeXeXeXeXeXeXeXeXwXtXtXwXOX=X=X=X^ X y                           ",
"                              : # ` X.k.].].$Xj.V.x.V.@X'.#X#Xm.m.B.B.B.B.B.B.B.B.m.m.#X@Xz.v.z.r X ^                           ",
"                              : $ ] k.`.XX|.[.&X} S ( ( ( ( ( ( ( ( ( ( ) ) ( ( ( ( ) g.}.[.|.%XC X C                           ",
"                              : & [ O.#.XX|.[.&XA @ + X $ $ + + + + + $ @ + # # # $ - }  X].%X@Xm + ^                           ",
"                              3 & [ ,XoXXX_.l.x.A X e 4.=.=.>.>.=.,.>.>.=.>./ > 3 ~ ) o.*X].'.j.C + ~                           ",
"                              : - +.O.`.XXXXk.g.t + r                       4.o : f.#.`.|.|.+.h.w $ C                           ",
"                              2 - X.#.+.`.#.B N                             4.& 2 X.#.l.`.O.M m ` `                             ",
"                              $ $ [ g.#.O.O.= $                             =.& $ f.g.o.g.X.- $ 5.                              ",
"                                    M M M                                     ` >.{ M M M M ` `                                 ",
"                                  w $ & & ,                                       9 # # # w                                     ",
"                                  9 > , < 8                                       9 : , < 9                                     "
};
