/* XPM */
static char *result[] = {
/* columns rows colors chars-per-pixel */
"64 64 213 2 ",
"   c #010101",
".  c #0A0503",
"X  c #0B0902",
"o  c #00010C",
"O  c #030A0C",
"+  c #0E0E0E",
"@  c #060900",
"#  c #150600",
"$  c #1A0600",
"%  c #120D06",
"&  c #1E0A01",
"*  c #100F0E",
"=  c #001402",
"-  c #151201",
";  c #1A1501",
":  c #12110F",
">  c #1B1B09",
",  c #000415",
"<  c #000A13",
"1  c #070A15",
"2  c #0D161B",
"3  c #141311",
"4  c #1C1C1C",
"5  c #12171C",
"6  c #220C01",
"7  c #2C0A01",
"8  c #390500",
"9  c #2D1001",
"0  c #211C04",
"q  c #341602",
"w  c #3A1902",
"e  c #391702",
"r  c #251D14",
"t  c #231D18",
"y  c #262302",
"u  c #2E2906",
"i  c #262507",
"p  c #332C05",
"a  c #392603",
"s  c #323101",
"d  c #373108",
"f  c #3B3509",
"g  c #3D3703",
"h  c #27221E",
"j  c #373215",
"k  c #1D1E20",
"l  c #1F2020",
"z  c #182032",
"x  c #212121",
"c  c #282624",
"v  c #2D2926",
"b  c #2F2B29",
"n  c #27282D",
"m  c #342B23",
"M  c #322E29",
"N  c #392E23",
"B  c #36312C",
"V  c #333C3A",
"C  c #570002",
"Z  c #441D03",
"A  c #491F03",
"S  c #7C0000",
"D  c #7A0006",
"F  c #690000",
"G  c #4A2003",
"H  c #442A00",
"J  c #552503",
"K  c #5C2904",
"L  c #423600",
"P  c #423A01",
"I  c #433C0B",
"U  c #4B3B00",
"Y  c #513E00",
"T  c #453E15",
"R  c #672D05",
"E  c #493C2E",
"W  c #45392C",
"Q  c #493F34",
"!  c #3C430D",
"~  c #3C423F",
"^  c #4C4300",
"/  c #4B440E",
"(  c #484A08",
")  c #51490F",
"_  c #564800",
"`  c #5F5507",
"'  c #4B4312",
"]  c #4E461B",
"[  c #544C11",
"{  c #584F12",
"}  c #554D19",
"|  c #4A5212",
" . c #5C5313",
".. c #535915",
"X. c #585617",
"o. c #665A04",
"O. c #615614",
"+. c #645A16",
"@. c #685E17",
"#. c #61561E",
"$. c #635A1B",
"%. c #6F640D",
"&. c #6D6215",
"*. c #6E6319",
"=. c #716619",
"-. c #74691B",
";. c #7A6C1C",
":. c #716613",
">. c #554A2A",
",. c #5A5329",
"<. c #4E4133",
"1. c #544535",
"2. c #5B4B3B",
"3. c #544B34",
"4. c #5E5732",
"5. c #645A23",
"6. c #655D2C",
"7. c #61513C",
"8. c #604F3D",
"9. c #6E6321",
"0. c #756A22",
"q. c #796D22",
"w. c #756B2C",
"e. c #756B33",
"r. c #776B39",
"t. c #7C723C",
"y. c #3D3D42",
"u. c #59585A",
"i. c #575147",
"p. c #695644",
"a. c #685544",
"s. c #79644F",
"d. c #75614C",
"f. c #6C6753",
"g. c #7B6651",
"h. c #7A6B57",
"j. c #78724F",
"k. c #6C6A68",
"l. c #75726C",
"z. c #8B0000",
"x. c #800000",
"c. c #990100",
"v. c #A10300",
"b. c #B50100",
"n. c #BE0400",
"m. c #C20803",
"M. c #826B55",
"N. c #866F58",
"B. c #8E765D",
"V. c #897357",
"C. c #957B62",
"Z. c #9A7F65",
"A. c #8F7762",
"S. c #9C8267",
"D. c #9F8469",
"F. c #8E897E",
"G. c #9A947A",
"H. c #8C8566",
"J. c #A2876B",
"K. c #A5896D",
"L. c #B19375",
"P. c #BA9B7C",
"I. c #B59778",
"U. c #AB8E72",
"Y. c #BFA07F",
"T. c #C09F7F",
"R. c #8A8889",
"E. c #928C81",
"W. c #989588",
"Q. c #989697",
"!. c #A29E92",
"~. c #B2AE9B",
"^. c #ADA897",
"/. c #AAAAAA",
"(. c #B1AEAE",
"). c #B5B1A2",
"_. c #BAB7AC",
"`. c #BBBABA",
"'. c #C3A382",
"]. c #CAA887",
"[. c #CEAC8A",
"{. c #C9A786",
"}. c #D1AE8C",
"|. c #D5B28F",
" X c #DEB995",
".X c #DAB692",
"XX c #E0BB96",
"oX c #E4BE99",
"OX c #C1BEB4",
"+X c #C1BFBA",
"@X c #E7C09A",
"#X c #EBC49D",
"$X c #C7C5BD",
"%X c #EFC7A0",
"&X c #EFC8A0",
"*X c #F3CBA3",
"=X c #F9D0A7",
"-X c #FED5AB",
";X c #FFD9AE",
":X c #FFDCB1",
">X c #FFE1B5",
",X c #FFE5B8",
"<X c #C9C8C6",
"1X c #D6D4CD",
"2X c #D9D5D5",
"3X c #D2D2D2",
"4X c #E1DDDD",
"5X c #E2E1DE",
"6X c #E5E3E2",
"7X c #ECEBEB",
"8X c #FFFFFF",
"9X c #F7F7F6",
"0X c None",
/* pixels */
"0X0X0X0X0X0X0X0X0X0X0X0X0X0X0X0X0X0X0X0XX O O . + + O . O . + + . O O . + + . O O O X + O O O . O . 0X0X0X0X0X0X0X0X0X0X0X0X0X0X",
"0X0X0X0X0X0X0X0X0X0X0X0X0X0X0X0X* 3 + 5 x h x x l l x h x x l l k h x x k x x l l x h l h t x x x x * + 0X0X0X0X0X0X0X0X0X0X0X0X",
"0X0X0X0X0X0X0X0X0X0X0X0XO 4 3 4 x x x x x x x x x x x x x x x l x x x x h x x x x x x x x x x x x x x l 5 4 4   0X0X0X0X0X0X0X0X",
"0X0X0X0X0X0X0X0X0X  : m c x x x x x x x x x x x x x x x x x x x x x x x k x x x x x x x x x x x x x x x x x x l 4   0X0X0X0X0X0X",
"0X0X0X0X0X0X0XO O h <     c x x x x l x x x x x x x x l x x x x x x x x x x x x x l x x x x x x x x x x x x x x x x 5   0X0X0X0X",
"0X0X0X0X0X0X  4 c , <.J.g., v c x l l l x x x x x x x x x x x x x x x x x x x x x x x x x x x x x x x l x x x l x c 4 + + 0X0X0X",
"0X0X0X0X  : 3 4 M   g.,X].  5 5 c v v c l x 4 x k x x x x x x x x x k x x x x x x x x x l x x x l x x x l x x x x x x c 3   0X0X",
"0X0X0X0X  5 c x v   g.-X&XXXC.  <     , M M M M M x k l l l l x x x x x x x x x x x x x x x x x x x x x x x x x x x x x t 4 O   ",
"0X0X  + l l l h M   M.-X;X:X=X%XB.a.d.1.          M B M M B c x l k l l l x x x x x x x l x x l x x x x x x x x x x x x x x *   ",
"0X0X  + x x l x v   p.-X-X-X-X-X;X-X;XoXC.D.S.D.C.          o v v b b b b v c c c c c c c v c c c c c c c c c c c x x x x x +   ",
"0X0X  + x x c , m I.}.-X-X-X-X-X-X-X-X-X;X;X;X:X-X{.P.'.T.{.p.              < , , , , , < 2 2 2 2 2 2 2 2 2 2 2 5 x x x x x +   ",
"0X0X  + x x v   E -X:X-X;X-X-X-X-X-X;X;X;X;X-X;X-X>X>X:X;X:X#X.X X X XXX%XJ.t 1.<.Q Q 2.W m m m m m m m m m m m v X 5 x x x X   ",
"0X0X  + x 4 M     *X-X-X-X-X-X-X-X-XoX@X*X#X#X&X#XXX@X-X-X-X-X;X;X;X:X-X@XoX XXXXXXX X}.XX*X*X*X*X&X*X*X&X*X&X*XoXr   v 5   0X0X",
"0X0X  + x 4   M.K.=X-X-X-X-X-X-X;X*XK.s.          B.P.;X-X-X-X-X-X-X;X XC.2.        <.S..X:X-X;X;X;X;X;X-X-X;X:X*Xt   b 3   0X0X",
"0X0X  + x h   @X,X-X-X-X-X-X-X-X-X-X:X*XP.'.'.Y.{.;X;X-X-X-X-X-X-X-X-X-X:XXXP.'.'.P.|.:X;X-X-X-X-X-X-X-X-X-X-X:X*Xr   h + 0X0X0X",
"0X0X0X0X+ +   d.Z.=X:X-X-X-X;X-X-X-X-X-X:X:X:X:X;X-X-X-X-X;X-X-X-X;X-X-X-X;X:X:X;X:X;X-X-X-X-X-X-X-X-X-X-X;X-XL.M.0X0X0X0X0X0X0X",
"0X0X0X0X0X0X0X    oX*X-X-X-X-X-X-X-X-X-X-X-X-X-X-X-X-X-X=X%X%X%X%X%X-X;X-X-X-X-X-X-X-X-X-X-X-X-X-X-X-X-X>X-X&X2.  0X0X0X0X0X0X0X",
"0X0X0X0X0X0X0X0X0X  V.:X:X:X-X-X-X-X-X-X-X-X-X-X-X-X=X:X^.    .   i.-X-X-X-X-X-X-X-X-X-X-X-X-X-X;X;X>X*XXXC.  0X0X0X0X0X0X0X0X0X",
"0X0X0X0X0X0X0X0X0X0Xp.P.P.L.%X:X-X-X:X-X-X-X-X-X-X;X-X:XoXT.[.{.'.|.-X-X;X-X-X-X-X-X-X-X;X-X;X;X'.I.Y.Z.0X0X0X0X0X0X0X0X0X0X0X0X",
"0X0X0X0X0X0X0X0X0X0X0X0X0X0Xg.C.&X:X-X-X:X:X-X:X-XZ.B.C.Z.K.K.K.K.J.Z.Z.M. X:X;X;X;X;X-X-X:XI.M.0X0X0X0X0X0X0X0X0X0X0X0X0X0X0X0X",
"0X0X0X0X0X0X0X0X0X0X0X0X0X0X0X0X2.p.E J.=X*X*X*X*X*X*X%X#X#X#X#X#X%X#X%X*X*X*X*X*X-X].1.a.a.0X0X0X0X0X0X0X0X0X0X0X0X0X0X0X0X0X0X",
"0X0X0X0X0X0X0X0X0X0X0X0X0X0X0X0X0X0X0X0X        Q |.oX:X-X;X-X;X;X-X:X*XXXJ.  >     0X0X0X0X0X0X0X0X0X0X0X0X0X0X0X0X0X0X0X0X0X0X",
"0X0X0X0X0X0X0X0X0X0X0X0X0X0X0X0X0X0X0X0X0X0X0X0X0X  g.:X-X-X-X-X-X-X:X[.  0X0X0X0X0X0X0X0X0X0X0X0X0X0X0X0X0X0X0X0X0X0X0X0X0X0X0X",
"0X0X0X0X0X0X0X0X0X0X0X0X0X0X0X0X0X0X0X0X0X0X0X% i  .r.M.].:X=X=X-X#XA.M.@.]   0X0X0X0X0X0X0X0X0X0X0X0X0X0X0X0X0X0X0X0X0X0X0X0X0X",
"0X0X0X0X0X0X0X0X0X0X0X0X0X0X0X0X0X0X0X0X0X     .-.;.&.( P a >.7.7.<.    *.*.-.i   0X0X0X0X0X0X0X0X0X0X0X0X0X0X0X0X0X0X0X0X0X0X0X",
"0X0X0X0X0X0X0X0X0X0X0X/ p   d / I I / I / f u {  . .^   i.R.i.L ^ >.E.k.  ' O./ I u d I I I I I . ; / d 0X0X0X0X0X0X0X0X0X0X0X0X",
"0X0X      f  .)  .)  .;. .  O.-.=.-.=.-.;.O.[ - o   u.Q.+X6XE.P ^ l.5X(.  ,   @.-.[  .-.-.=.-.=.- u -.@.[ { )  ./     @ 0X0X0X0X",
"0X0X  d &.&.;.-.-.-.=.-.{    .=.*.*.*.*.*. .[  .5.  l.6X2X2XF.L ^ f.4X(.  ] +.*.=.@.O.{ @.*.=.*.- u =.=.-.-.-.-.=.@.)   0X0X0X0X",
"0X0X  I ;.*.*.*.&.*.*.-. .   .-.*.*.=.&.{ O.@.-.w.& k.$X<X2XF.g ^ f.<X!.  ,.;.&.@. .$.*.@.=.=.&.- s -.-.-.-.-.-.;.;.+.  0X0X0X0X",
"0X0X  f =.*.=.*.*.-.&.-.{    .-.*.=.*.-.*.*. .$.O.-.6.  Q.6XF.a ,.)   g -.*.+. .X.*.-.0.-.=.-.&.; 0 | | | | | | | | !   0X0X0X0X",
"0X0X  f -.*.*.=.*.=.*.-.{    .-.*.*.*.*.*.@. .@.+.-.9.^ l.Q.f.Y j I [  .-.&.O.+.O.9.$._ o.6.$.O.= 8 z.z.z.z.z.z.z.z.S   0X0X0X0X",
"0X0X  f -.*.=.=.=.=.*.-.{    .=.*.-.=.=.*.*.@. . . . .q.^   g }   i -.*.X. . .,.>.$ P h.>.  ] ,.= C m.m.n.n.n.m.n.m.v.  0X0X0X0X",
"0X0X@ f -.*.*.=.=.*.*.-.{    .-.*.=.=.=.=.=.=.&.@.*.+.X.T , : -   0 ' { *.@.9.a L W.).6X$XW.5.$ = C b.b.b.b.b.b.b.b.c.  0X0X0X0X",
"0X0X  f -.=.=.=.=.=.=.-.{    .-.*.*.=.*.=.=.*.=.=.=.=.-. .I y     X   I q.0.&.~.OX<X(.  Q.3X$X_.V C n.n.n.n.n.n.n.m.v.  0X0X0X0X",
"0X0X  f =.*.*.=.*.=.*.-.{    .-.=.=.=.=.=.*.*.=.=.=.=.=.=.;.I   . X k j L ` o.OX<X<X/.  R.<X<X$Xy.7 D D S S S S S x.F   0X0X0X0X",
"0X0X  g -.*.=.*.=.=.=.=.{    .=.*.*.*.=.=.=.=.=.=.=.*.-. .f { +.v ,     z 6.t.H ^ ~.OX5X$X^.r.a - i ................(   0X0X0X0X",
"0X0X  f =.*.*.*.&.&.*.=.{    .-.=.=.*.=.=.*.=.=.=.=.*.=.@.) *.-.  . k.`.8X9X8X).H.8 _ G.j.U *.e.- u -.-.-.-.-.-.=.;.O.  0X0X0X0X",
"0X0X  ' q.0.;.0.0.q.;.q. .   .-.*.=.=.=.=.=.=.*.=.=.=.=.O.I O.w.).<X8X7X<X3X3X8X8XOX!.8 o.r.=.&.- d 0.0.0.-.0.;.-.q.$.o 0X0X0X0X",
"0X0X0X  s s s u s s s s y    .-.*.=.*.=.=.*.=.*.=.=.*.=.+./ +.w._.1X8X7X`.k.  Q.`.8X9X1X^.o.w.*.> X s s p s p s s s y 0X0X0X0X0X",
"0X0X: S.@XXX XoX X X X@XL.  #.-.*.=.*.=.=.*.=.=.=.=.=.=.+.) @.-.Y o.G.<X8X`.y.c u.8X8X8X$XU e.-.  p.oX XXXXX X XXX@X].r 0X0X0X0X",
"  2.=X;X;X;X;X;X;X;X;X>X[.  5.=.*.=.=.=.=.=.=.=.=.=.&.-.O.I @.=.w.w._ =.e.OX6X5X5X7X3XV Q   $.q.  g.;X;X;X;X;X:X;X:X-X:XL.  0X0X",
"  2.-X;X-X-X=X-X-X-X=X;X{.  #.-.*.=.=.=.=.&.-.&.=.=.=.=.@./ @.=.=.=.w.=.o.%.w.-.*.          / #.  g.-X=X-X-X-X-X-X-X-X>XI.  0X0X",
"  2.=X-X-X-X;X;X;X;X-X>X[.  5.-.=.-.=.=.=.=.-.*.=.=.-.-.@./ *.-.=.=.=.-.w.-.%.%.&.X.] 3 : .   1   M.-X-X-X;X:X-X;X-X=X;XL.  0X0X",
"  2.;X:X:X-X:XL.M.-X#XN.g.0Xd f d d d d d d d d d d d d f I d d d d d d d d d d f f d         % 0X0XM.^.>XI.g.%X-X;X;X,XP.  0X0X",
"  1.@X*X=XP.N 0X0X2.1.0X0X%   o o o o o o o o o , o o o o o o o o o o o o o o , o o , + + + + + X   0X0X7.0X0XW g.#X&X=XK.  0X0X",
"0X0X      0X0X0X0X0X0X0X0X  * 5 3 3 : 5 : 3 3 > 3 3 3 : : 3 3 : 3 3 3 3 3 3 3 3 3 3 3 + + + + 3   . 0X0X0X0X0X0X0X      0X0X0X0X",
"0X0X0X0X0X0X0X0X0X0X0X0X0X  X * * : + * 3 + 3 + * + * * : : + : : + * * 3 * * * : * * 3 * + * +     0X0X0X0X0X0X0X0X0X0X0X0X0X0X",
"0X0X0X0X0X0X0X0X0X0X0X0X0X  O : * * + + + + + + * * * * + + + + * * * * + + * * * * * + + * + +     0X0X0X0X0X0X0X0X0X0X0X0X0X0X",
"0X0X0X0X0X0X0X0X0X0X0X0X0X  O : + + + * * + 3 + + + 3 + * + 2 : + * 2 + * + * 2 + + + * 3 + + +     0X0X0X0X0X0X0X0X0X0X0X0X0X0X",
"0X0X0X0X0X0X0X0X0X0X0X0X0X  O 3 3 + + 2 + 3 + + + + + + * * + O + + * + + * + + + + 3 + + + + + .   0X0X0X0X0X0X0X0X0X0X0X0X0X0X",
"0X0X0X0X0X0X0X0X0X0X0X0X0X  X * + + + + + + 3 + + * + + * * .   + * 3 + * + + + + 3 + + + + + +     0X0X0X0X0X0X0X0X0X0X0X0X0X0X",
"0X0X0X0X0X0X0X0X0X0X0X0X0X  + * + + 3 + + + + + * * * 2 * * o   + + + * + * 3 + + + 3 2 + + + +     0X0X0X0X0X0X0X0X0X0X0X0X0X0X",
"0X0X0X0X0X0X0X0X0X0X0X0X0X  O 3 + + * + * * * * + * * * * +     + * + * * + * + + 3 + + + + * +     0X0X0X0X0X0X0X0X0X0X0X0X0X0X",
"0X0X0X0X0X0X0X0X0X0X0X0X0X  X * + + * * + * * + 3 + * * + + .   + + * + * * + * + + + + + + * +     0X0X0X0X0X0X0X0X0X0X0X0X0X0X",
"0X0X0X0X0X0X0X0X0X0X0X0X0X  + + + 3 * + * + 3 + + + 3 * 3 + O   * * + 3 * * * * + + + 3 + + + + .   0X0X0X0X0X0X0X0X0X0X0X0X0X0X",
"0X0X0X0X0X0X0X0X0X0X0X0X0X  + * . O + 3 3 O   + * + + o + + O   * *   1 * * : O O + 3 + + . + 3     0X0X0X0X0X0X0X0X0X0X0X0X0X0X",
"0X0X0X0X0X0X0X0X0X0X0X0X0X  o O O O     1     O O     O O O     O < O     O O     O O     O O O     0X0X0X0X0X0X0X0X0X0X0X0X0X0X",
"0X0X0X0X0X0X0X0X0X0X0X0X0X  & 6 6 ; & & & & 6 6 & 6 & 6 6 6 .   & 6 & & & 6 6 & 6 6 & & & & 6 &     0X0X0X0X0X0X0X0X0X0X0X0X0X0X",
"0X0X0X0X0X0X0X0X0X0X0X0X0X  9 e w w w w w w w w w w w q e w &   q e e e w e e w w w w w w w w w     0X0X0X0X0X0X0X0X0X0X0X0X0X0X",
"0X0X0X0X0X0X0X0X0X0X0X0X0X& # # q w w w G Z w w q & # & # # 0X0X# $ $ & % $ # q e w Z w w w 6 # & $ 0X0X0X0X0X0X0X0X0X0X0X0X0X0X",
"0X0X0X0X0X0X0X0X0X0X0X9 Z J Z 9 w w G G G G G w w q q q 6   0X0X  . q q q q q w w G G A G w e e J A 9 7 0X0X0X0X0X0X0X0X0X0X0X0X",
"0X0X0X0X0X0X0X0X0Xq Z J G w Z w G G G G Z G G G A w w w 9   0X0X  # q w w Z w Z G G G a G G w w w Z J A e 9 0X0X0X0X0X0X0X0X0X0X",
"0X0X0X0X0X0X0X  . K K q e w w w w q e w e q e e e w w w 6   0X0X  # e e w w w w q w e e q e e e w w q G R e   0X0X0X0X0X0X0X0X0X",
"0X0X0X0X0X0X0X    7 6 # # # # # # # # # # # # # # # # # # 0X0X0X0X0X# # # # # # # # # # # # # # # # # & 9 #   0X0X0X0X0X0X0X0X0X"
};
