/* XPM */
static char *efbe104c72ff4553b28a9b18cfe18c85dEhJSYPTeyhCY70c[] = {
/* columns rows colors chars-per-pixel */
"64 64 232 2 ",
"   c None",
".  c #12330D",
"X  c #25271F",
"o  c #2C301D",
"O  c #261F23",
"+  c #1A3026",
"@  c #252424",
"#  c #292628",
"$  c #35242A",
"%  c #39282B",
"&  c #382427",
"*  c #2E3729",
"=  c #3D312E",
"-  c #3B2B32",
";  c #372732",
":  c #393533",
">  c #47332C",
",  c #432B39",
"<  c #433232",
"1  c #45323A",
"2  c #4A343D",
"3  c #4B3A37",
"4  c #533C38",
"5  c #48332E",
"6  c #1A4405",
"7  c #1B4B17",
"8  c #165204",
"9  c #254A0B",
"0  c #255303",
"q  c #375718",
"w  c #325515",
"e  c #38630B",
"r  c #326713",
"t  c #1D4024",
"y  c #294B27",
"u  c #3D4623",
"i  c #3C5628",
"p  c #3B4634",
"a  c #3F5037",
"s  c #376625",
"d  c #3B7337",
"f  c #2D652D",
"g  c #404314",
"h  c #43761C",
"j  c #557A19",
"k  c #476C19",
"l  c #435527",
"z  c #4A4538",
"x  c #57453A",
"c  c #46563B",
"v  c #5F503E",
"b  c #62503C",
"n  c #4C6725",
"m  c #487628",
"M  c #547A27",
"N  c #476438",
"B  c #4F6E38",
"V  c #66782B",
"C  c #647B39",
"Z  c #62653B",
"A  c #4B3643",
"S  c #4A3D45",
"D  c #473E42",
"F  c #4B4444",
"G  c #5A4443",
"H  c #584848",
"J  c #4A5A43",
"K  c #5A5A4D",
"L  c #5C4656",
"P  c #5B4A56",
"I  c #595C59",
"U  c #634E4A",
"Y  c #645143",
"T  c #64534B",
"R  c #665A4B",
"E  c #6B5849",
"W  c #755D4B",
"Q  c #624C5A",
"!  c #654A5C",
"~  c #645253",
"^  c #69525D",
"/  c #685756",
"(  c #715C5E",
")  c #577541",
"_  c #6E694A",
"`  c #73614A",
"'  c #7C6B4C",
"]  c #796748",
"[  c #676658",
"{  c #756355",
"}  c #7E6B54",
"|  c #7B6A5B",
" . c #786758",
".. c #6B7C42",
"X. c #664F62",
"o. c #6C5967",
"O. c #745C67",
"+. c #795F73",
"@. c #6F6862",
"#. c #77656A",
"$. c #7C6276",
"%. c #7C6778",
"&. c #746E79",
"*. c #826E4D",
"=. c #8B6C4C",
"-. c #836F45",
";. c #906E4D",
":. c #847246",
">. c #85734B",
",. c #8B744E",
"<. c #8C7D4C",
"1. c #8B7543",
"2. c #947A4D",
"3. c #8B6D51",
"4. c #886E57",
"5. c #867354",
"6. c #8C7253",
"7. c #8D7B54",
"8. c #84735B",
"9. c #8C7B5C",
"0. c #8B745B",
"q. c #937C53",
"w. c #977851",
"e. c #906E50",
"r. c #8C6B7E",
"t. c #836A7B",
"y. c #86737D",
"u. c #89776C",
"i. c #46801B",
"p. c #56861E",
"a. c #69971B",
"s. c #749F1D",
"d. c #638A1F",
"f. c #74A11B",
"g. c #6BA01A",
"h. c #5B8727",
"j. c #5C9229",
"k. c #5A9539",
"l. c #508237",
"z. c #688A2D",
"x. c #679928",
"c. c #769B2A",
"v. c #688738",
"b. c #728A3C",
"n. c #6A9734",
"m. c #769C34",
"M. c #769A38",
"N. c #77A227",
"B. c #78A134",
"V. c #788A4A",
"C. c #78974A",
"Z. c #6E934C",
"A. c #7C8A6B",
"S. c #819D3F",
"D. c #81A13C",
"F. c #819A4B",
"G. c #878C51",
"H. c #958253",
"J. c #9B8554",
"K. c #94825B",
"L. c #9B8B5B",
"P. c #968957",
"I. c #889756",
"U. c #9B955C",
"Y. c #99844D",
"T. c #A28C5A",
"R. c #A6945D",
"E. c #AA945E",
"W. c #A5995B",
"Q. c #A9995D",
"!. c #A49755",
"~. c #B0975D",
"^. c #87A649",
"/. c #94AD4B",
"(. c #8AA653",
"). c #88A05B",
"_. c #94B35A",
"`. c #9CB95B",
"'. c #92B054",
"]. c #A3AF5D",
"[. c #938362",
"{. c #9B8B63",
"}. c #899B66",
"|. c #989464",
" X c #929176",
".X c #A49563",
"XX c #A99662",
"oX c #A69B63",
"OX c #A99963",
"+X c #A6996B",
"@X c #B09A64",
"#X c #A59B73",
"$X c #A08F65",
"%X c #99A864",
"&X c #9DB46A",
"*X c #96AA75",
"=X c #A9A765",
"-X c #ACAA75",
";X c #B3A77B",
":X c #A8BA78",
">X c #B8B879",
",X c #AAB869",
"<X c #9DC16C",
"1X c #A5C268",
"2X c #A9C378",
"3X c #7C6D80",
"4X c #8B6D81",
"5X c #8E7583",
"6X c #977888",
"7X c #947D92",
"8X c #9E8395",
"9X c #9E8798",
"0X c #A38799",
"qX c #B6B988",
"wX c #A9B485",
"eX c #C3BA92",
"rX c #B4C785",
"tX c #BAD293",
"yX c #B5D184",
"uX c #C2DB9C",
"iX c #CDDBB2",
"pX c #D7EBB6",
"aX c #C9E0A5",
"sX c #DEF2C8",
"dX c #DDEBCE",
"fX c #E1F4C7",
"gX c #E8FAD6",
"hX c #E4EDDB",
"jX c #F6FEEB",
"kX c #F9FEFE",
"lX c #F8FFF5",
"zX c #EDF6ED",
/* pixels */
"                                                                                                                                ",
"                                                                                                                                ",
"                                                                                                                                ",
"                                                                                                                                ",
"                                                                                                                                ",
"                                                                                                                                ",
"                                                                                                                                ",
"                                                                                                                                ",
"                                                                                                                                ",
"                                                                                                                                ",
"                                                                                                                                ",
"                                                                                                                                ",
"                                                                                                                                ",
"                                                      Q A S S D F F D F #.                                                      ",
"                                                    t.P : # @ # # * # : P 5X                                                    ",
"                                                O.@.[ @.[ p X * c J J c F / O.O.+.                                              ",
"                                            D @ @ o Z }.}.l . i C V.) ) J : ; ; $ ^                                             ",
"                                          @.K c l l C (.(.j e n n.M.M s c J H 3 1 ^ t.                                          ",
"                                        x Z G.F.b.V b.S.M.z.z.z.c.a.e 9 c A. Xu.E T H Q                                         ",
"                                      R g V /.`._.(.(.(.^.D.M.m.s.a.e 9 B *XqX#X9.E < 2 #.                                      ",
"                                  %. ._ V c.^.`.2XtXtXtXyX_.M.m.N.x.l.B V.wXqX.X>.` Y U / O.r.                                  ",
"                                y.z z V._./.D._.uXfXgXgXpX:XC.m.B.n.Z.Z.}.qXqX+X>.*.} { G < Q                                   ",
"                                3X: u V.1X1X&XrXdXlXlXjXfX2XF.z.h.M v.C.}.qXqX#XK.7.5.{ x $ L 8X                                ",
"                                &.: u V.,XyXaXdXzXkXlXjXfXrX^.M e 0 k v.I.qXeX;X$XH.7.' x & L 9X                                ",
"                                &.p u V.2XuXgXlXkXkXlXgXpX2XM.j 0 6 e C G.-XeX;X+XL.q.*.v - L 7X                                ",
"                            6X#.I a n b._.tXgXkXkXkXhXiXrX_.m.d.k m v.I.%X-X-X#XOXR.J.7.` H P o.t.0X                            ",
"                          0Xo.: a N M z.^.yXsXjXlXjXiX:X^.B.N.a.n.C.%X:X>X=XW.Q.Q.R.R.T.9.| ~ S A t.                            ",
"                          0XQ O * i M h.M.<XuXpXpXpXrX(.m.c.f.a.n.C.&XrX>X=X!.W.!.R.@XXXK.5.R = ; $.                            ",
"                          9XQ @ + t q M M.^._.1X`.`.'.B.m.B.g.a.p.v.%XrX>X=XW.!.W.R.@XE.q.5.R = ; $.                            ",
"                          9XQ @ + . 7 m n.B.c.N.N.N.c.n.n.n.x.x.h.b.%X2X>X=XoXU.oXR.~.E.H.5.E = - $.                            ",
"                          9XP @ + 7 r m j.x.x.s.s.c.z.m m l.k.k.C.).=X,X=XoX+X+X+X.XE.E.H.5.E = - $.                            ",
"                          9XP @ y f m m i.j.x.N.N.n.M 9 6 s l.Z.:X:X=XW.OXOX+X#X.X.XQ.R.K.5.T < ; $.                            ",
"                          0XL @ y d d s r h j.x.x.z.M q q n v.C.-X-X-XOX.XOX+X.XQ.Q.R.R.K.8.E < , $.                            ",
"                          0XL X y d d 7 8 0 i.h.p.h.v.C ..V.G.P.P.{..X.X+XXXXXR.Q.Q.Q..X[.8.R < ; +.                            ",
"                          0XX.- p N N y 6 0 h p.j h.V.G.|.|.U.P.<.<.L..XOXXXR.Q.W.Q..X.X[.| T 2 2 t.                            ",
"                              o.K c a c N B v.v.v.b.V.G.P.L.J.J.H.J.L..XOXXXQ.Q.W.Q..X{.} Y U ^ #.8X                            ",
"                                @.z p [ A.}.I.I.I.I.G.<.,.,.w.w.T.R.XXE.R.E.Q.Q.W.OX.X{.E > H 5X                                ",
"                                  = = |  X X|.U.U.L.H.7.=.=.;.w.J.T.E.XXR.OXQ.Q.R.oX$X[.v & H 8X                                ",
"                                  - = / 8.9.q.H.2.q.w.6.3.=.3.,.2.Y.T.E.OXOXE.OX.X{.[.8.G & L 9X                                ",
"                                  1 < T  .4.=.=.=.=.;.=.3.6.6.=.1.1.Y.R.XXR.R..X.X{.5.{ G - P 8X                                ",
"                                    / T Y W 3.=.=.e.=.=.,.>.*.,.1.1.<.H.L.P.P.L.K.5.E T / o.4X                                  ",
"                                      U > x } 4.0.6.6.>.,.>.>.>.-.>.,.7.q.7.7.9.0.` 4 5 O.8X                                    ",
"                                      O.4 G / { ` ` ] ' :.:.:.:.>.5.5.*.] ` ` ` { R 4 G 5X                                      ",
"                                          ( H 3 3 z b ' >.>.,.>.5.8.8.8.W b 4 4 4 ~ #.6X                                        ",
"                                          y.S $ $ % z ` ' ' *.} } | | | T 5 & & % ^ 8X                                          ",
"                                            +.X.o.Q ~ T Y Y Y Y T T T T ~ ~ ^ ^ ^ 4X                                            ",
"                                                    %.S % & % % % % % < P y.                                                    ",
"                                                    7X! , 2 A 1 1 2 1 A O.                                                      ",
"                                                      6Xr.r.4Xr.r.4Xr.5X0X                                                      ",
"                                                                                                                                ",
"                                                                                                                                ",
"                                                                                                                                ",
"                                                                                                                                ",
"                                                                                                                                ",
"                                                                                                                                ",
"                                                                                                                                ",
"                                                                                                                                ",
"                                                                                                                                ",
"                                                                                                                                ",
"                                                                                                                                ",
"                                                                                                                                ",
"                                                                                                                                ",
"                                                                                                                                ",
"                                                                                                                                "
};
