/* XPM */
static char *result[] = {
/* columns rows colors chars-per-pixel */
"64 64 242 2 ",
"   c black",
".  c #171919",
"X  c #080B11",
"o  c #002E00",
"O  c #26250C",
"+  c #2A2A2A",
"@  c #373637",
"#  c #2C322E",
"$  c #112424",
"%  c #6A3A24",
"&  c #573426",
"*  c #0E5200",
"=  c #2F5800",
"-  c #2B6200",
";  c #3B7400",
":  c #3C7D00",
">  c #357300",
",  c #3A6B0E",
"<  c #3A592B",
"1  c #35512C",
"2  c #396930",
"3  c #4C7B00",
"4  c #487401",
"5  c #547C00",
"6  c #48781B",
"7  c #416A15",
"8  c #415636",
"9  c #5B4D27",
"0  c #77592D",
"q  c #71512A",
"w  c #416928",
"e  c #4A7729",
"r  c #476935",
"t  c #4C7537",
"y  c #537A3D",
"u  c #57783A",
"i  c #586F35",
"p  c #666B33",
"a  c #667638",
"s  c #747138",
"d  c #0D0D5C",
"f  c #252659",
"g  c #222241",
"h  c #1D1D72",
"j  c #1A2E76",
"k  c #25266B",
"l  c #242F7B",
"z  c #3A654E",
"x  c #355472",
"c  c #345460",
"v  c #4B4B4B",
"b  c #585757",
"n  c #486A46",
"m  c #557B42",
"M  c #587C47",
"N  c #4E7257",
"B  c #607953",
"V  c #466C6D",
"C  c #656565",
"Z  c #787878",
"A  c #677661",
"S  c #455E76",
"D  c #854B2B",
"F  c #8C4D2D",
"G  c #814528",
"H  c #944B2D",
"J  c #994C2E",
"K  c #8A502D",
"L  c #93512E",
"P  c #9C5431",
"I  c #985732",
"U  c #9D4E30",
"Y  c #A55333",
"T  c #AA5434",
"R  c #A45C35",
"E  c #A95D36",
"W  c #AA5F38",
"Q  c #A24E30",
"!  c #8A6B37",
"~  c #80793D",
"^  c #AA6035",
"/  c #3D8300",
"(  c #5B8C00",
")  c #568600",
"_  c #5E9200",
"`  c #4D8C15",
"'  c #629400",
"]  c #679B0A",
"[  c #669B1B",
"{  c #56833C",
"}  c #5A843B",
"|  c #578939",
" . c #5C9538",
".. c #538931",
"X. c #669A2A",
"o. c #639B3D",
"O. c #639A37",
"+. c #67813E",
"@. c #5B8443",
"#. c #5D8C43",
"$. c #5D834B",
"%. c #578A45",
"&. c #569243",
"*. c #5C9444",
"=. c #5C9A47",
"-. c #638847",
";. c #629646",
":. c #649947",
">. c #65954A",
",. c #659B49",
"<. c #699D4C",
"1. c #69994B",
"2. c #668656",
"3. c #669C52",
"4. c #6B9D52",
"5. c #699454",
"6. c #69A14C",
"7. c #67A147",
"8. c #6BA251",
"9. c #70A652",
"0. c #748B6A",
"q. c #758C6B",
"w. c #82917C",
"e. c #171689",
"r. c #181897",
"t. c #0A138E",
"y. c #102C93",
"u. c #263192",
"i. c #1414A8",
"p. c #0606B7",
"a. c #1313B4",
"s. c #0A08B5",
"d. c #1739AA",
"f. c #1230B1",
"g. c #2337A7",
"h. c #2424A9",
"j. c #304A8E",
"k. c #2C4F9F",
"l. c #5A77B1",
"z. c #57689C",
"x. c #0504C9",
"c. c #0606D9",
"v. c #0416CE",
"b. c #0637DA",
"n. c #062ECA",
"m. c #0304E6",
"M. c #0019EE",
"N. c #0100F4",
"B. c #0000FF",
"V. c #050CFE",
"C. c #0B0AFF",
"Z. c #0614FD",
"A. c #1C1CFF",
"S. c #1414FF",
"D. c #1B01F1",
"F. c #002CE9",
"G. c #002DF5",
"H. c #003CFE",
"J. c #0034F9",
"K. c #0B36F3",
"L. c #2323FF",
"P. c #2B2BFF",
"I. c #3637FF",
"U. c #2323EA",
"Y. c #2623E9",
"T. c #0445FF",
"R. c #0845FF",
"E. c #0C49FF",
"W. c #0546FB",
"Q. c #154BFF",
"!. c #194FFF",
"~. c #1149F7",
"^. c #4747FF",
"/. c #5959FF",
"(. c #6566FF",
"). c #7979FE",
"_. c #6A69F7",
"`. c #688496",
"'. c #799AB8",
"]. c #6E90AF",
"[. c #6E92AD",
"{. c #749AC3",
"}. c #7EA6C7",
"|. c #888789",
" X c #8C9889",
".X c #979896",
"XX c #9BA796",
"oX c #ABABAB",
"OX c #A5A5A4",
"+X c #B8BAB7",
"@X c #B4B6B0",
"#X c #90A3B7",
"$X c #83A8C7",
"%X c #8DB4D6",
"&X c #93BADB",
"*X c #8AAFD1",
"=X c #8888FE",
"-X c #9C9CFE",
";X c #9494FE",
":X c #A4A4FF",
">X c #ACACFF",
",X c #B3B3FF",
"<X c #BEBEFE",
"1X c #9BBEDA",
"2X c #9BC6E9",
"3X c #9CD1FB",
"4X c #A2C6E8",
"5X c #A4D4FB",
"6X c #AAD5FB",
"7X c #ADDAFE",
"8X c #A6D6F9",
"9X c #B2DDFE",
"0X c #B9DBF8",
"qX c #A7D2EF",
"wX c #B7E2FF",
"eX c #B2C1D3",
"rX c #C4C4C3",
"tX c #CCCCCC",
"yX c #D5D4D5",
"uX c #DADADA",
"iX c #D2D2D0",
"pX c #C4C4FF",
"aX c #CCCCFE",
"sX c #D4D4FE",
"dX c #DDDDFF",
"fX c #C4DCF5",
"gX c #C7E3FB",
"hX c #D7ECFD",
"jX c #EBEBEB",
"kX c #E6E4E6",
"lX c #E3E3FF",
"zX c #ECECFF",
"xX c #E8EDF8",
"cX c #EBF4FE",
"vX c #E8F3FB",
"bX c #F5F4F5",
"nX c #F3F4FD",
"mX c #FEFEFF",
"MX c #F6F9FB",
"NX c #F0EFF1",
"BX c #E1E0DE",
"VX c None",
/* pixels */
"VXVXVXVXVXVXVXVXVXVXVXVXVXVXVXVXVXVXVXVXVXVXVXVXVXVXVXVXVXZ OXoXoXoXOXv VXVXVXv Z Z Z Z @ VXVXk k VXVXVXVXVXVXVXVXVXVXVXVXVXVXVX",
"VXVXVXVXVXVXVXVXVXVXVXVXVXVXVXVXVXVXVXVXVXVXVXVXVXVX.XtXMXmXmXmXmXmXmXbXOX+XjXMXmXmXmXmXMXtXiX>XV.Y.i.VXVXVXVXVXVXVXVXVXVXVXVXVX",
"VXVXVXVXVXVXVXVXVXVXVXVXVXVXVXVXVXVXVXVXVXVXVX.XtXbXmXmXmXmXmXmXpXzXmXmXmXmXmXmXmXmXmXmXmXmXmXpXB.P.B.x.VXVXVXVXVXVXVXVXVXVXVXVX",
"VXVXVXVXVXVXVXVXVXVXVXVXVXVXVXk i.v.c.Y.p.l.BXmXmXmXmXmXmXmXmXlXB.:XmXmXmXmXmXmXmXmXmXmXmXmXnX(.B.S.B.B.i.VXVXVXVXVXVXVXVXVXVXVX",
"VXVXVXVXVXVXVXVXVXVXVXVXVXu.c.B.B.B.A.B.^.MXmXmXmXmXmXmXmXmXmX=XB.B.lXmXmXmXmXmXmXmXmXmXmXmX<XB.P.B.B.B.B.m.v.r.VXVXVXVXVXVXVXVX",
"VXVXVXVXVXVXVXVXVXVXVXVXa.B.B.B.B.C.B.B.lXmXmXmXmXmXmXmXmXmXaXB.<X(.(.mXmXmXmXmXmXmXmXmXmXmXzXI.B.C.B.B.B.B.B.B.m.+ VXVXVXVXVXVX",
"VXVXVXVXVXVXVXVXVXVXVXi.B.B.B.B.B.A.B.aXmXmXmXmXlXdXdXdXdXdX^.^.lX>XB.,XlXdXdXdXdXnXmXmXmXmXmX-XB.L.B.B.B.B.B.B.B.N.+ VXVXVXVXVX",
"VXVXVXVXVXVXVXVXVXVXr.B.B.B.B.B.A.B.=XmXmXmXmXmX,XB.B.B.B.B.B.B.B.B.B.B.B.B.B.B.I.nXmXmXmXMXmXpXB.P.B.B.B.B.B.B.C.B.x.VXVXVXVXVX",
"VXVXVXVXVXVXVXVXk c.B.B.B.B.B.B.L.B.<XmXmXmXmXmXmX(.B.dXpXB.:XlXdXlXsXB.).zX;XB.dXmXmXmXmXmXmX).B.A.B.B.B.B.B.B.B.B.N.VXVXVXVXVX",
"VXVXVXVXVXVXVXi.B.B.B.B.B.B.B.B.L.B.,XmXmXmXmXmXmXlXB.,X=XB.MXmXmXmXmX,XB.pXS.=XmXmXmXmXmXnX).B.A.B.B.B.B.B.B.B.B.B.B.i.VXVXVXVX",
"VXVXVXVXVXVXr.B.V.B.B.B.B.B.B.B.L.B.;XmXmXmXmXmXmXmX:XB.B.aXmXMXmXmXmXMX(.B.I.nXmXmXmXmXMX/.B.L.B.B.B.B.B.B.B.B.B.B.B.B.r.VXVXVX",
"VXVXVXVXVXVXc.B.B.B.B.B.B.B.B.B.A.B.).mXmXmXmXmXmXmXzXB./.mXmXmXmXmXmXmX<XB.:XmXmXmXmXmXdXB.P.B.B.B.B.B.B.B.B.B.B.B.B.B.B.i.VXVX",
"VXVXVXVXVXVXx.B.B.B.B.B.B.B.B.B.L.B.;XmXmXmXmXmXmXmX;XB.B.pXmXMXmXMXmXnX^.B.B.lXmXmXmXmXzXB.C.B.B.B.B.B.B.B.B.B.B.B.B.B.B.B.r.VX",
"VXVXVXVXVXVX# B.B.B.B.B.B.B.B.B.L.B.<XmXmXmXmXmXmXsXB.pX-XB.nXmXmXmXmX:XB.dX^.).mXmXmXmXzXB.C.B.B.B.B.B.B.B.B.B.B.B.B.B.B.B.B.h ",
"VXVXVXVXVXh a.N.B.B.B.B.B.B.B.B.C.B.zXmXmXmXmXmXmX^.B.aX,XB.=XsXpXaX<XB.(.dX;XB.pXmXMXmXaXB.L.B.B.B.B.B.B.B.B.B.B.B.B.B.B.B.B.e.",
"VXVXVXVXVXN.B.B.B.B.B.B.B.B.B.S.B./.nXmXmXmXmXmX>XB.P.B.B.S.B.B.B.B.B.B.B.B.B.B.I.nXmXmX(.B.S.B.B.B.B.B.B.B.B.B.B.B.B.B.B.B.B.VX",
"VXVXVXVXr.B.B.B.B.B.B.B.B.B.B.C.B.A.zXmXmXmXmXmXzXzXzXzXnXzX/.I.nX,XB.pXnXzXnXzXzXmXMX=XB.L.B.B.B.B.B.B.B.B.B.B.B.B.B.B.B.B.i.VX",
"VXVXVXVXh.B.B.B.B.B.B.B.B.B.B.B.L.B.-XmXmXmXmXmXmXmXmXmXmXmXsXB.:X^.).mXmXmXmXmXmXsX^.B.A.B.B.B.B.B.B.B.B.B.B.B.B.B.B.B.B.B.e.VX",
"VXVXVXVXh B.V.B.B.B.B.B.B.B.B.B.B.L.B.sXmXmXmXmXmXmXmXmXmXMXmX-XB.B.zXmXmXmXmXMX:XB.B.L.B.B.B.B.B.B.B.B.B.B.B.B.B.B.B.B.B.B.c.VX",
"VXVXVXVXVXe.B.B.B.B.B.B.B.B.B.B.B.L.B.-XmXmXmXmXmXmXmXmXmXmXmXnXB.,XmXmXMXmXMXpXB.P.A.B.B.B.B.B.B.B.B.B.B.B.B.B.B.B.B.B.B.B.B.f ",
"VXVXVXVXk a.B.B.B.B.B.B.B.B.B.B.B.S.B.(.mXmXmXmXmXmXmXmXmXmXmXmXsXnXmXmXmXmXjX_.B.L.B.V.C.C.C.V.B.B.B.B.B.B.B.B.B.B.B.B.B.B.B.f ",
"VXVXVXf B.B.B.B.B.B.B.B.B.B.B.B.B.B.L.B.<XmXmXmXmXmXmXmXMXmXmXmXmXmXmXMXyX Xe t x.B.B.B.B.B.B.B.B.B.B.V.B.B.B.B.B.B.B.B.B.B.a.VX",
"VXVXVXc.B.B.B.B.B.B.B.B.B.B.B.B.B.B.V.B.B.aXmXmXmXmXmXmXmXmXmXbXxXrXXX0.= 4 9.<.) x g.g.k.j.j.d.g.n.c.C.V.Z.B.B.B.B.B.B.B.s.VXVX",
"VXVXe.B.B.B.B.B.B.B.B.B.B.B.B.B.B.B.B.C.B.B.=XzXmXmXmXbXtXOXw.A r * = e M 8 t 5.4.X.' ' ] [ X._ ( ) 5 f p.N.B.V.B.B.B.B.N.O VXVX",
"VXVXc.B.B.B.B.B.B.B.B.B.B.B.B.B.B.B.V.V.S.P.B.V.dXBXOXB ; 4 .. .>.5.5.1.5.>.m t y 4.5.5.$.M m M M M $...5 M n.B.Z.B.B.B.B.h VXVX",
"VXVXm.B.B.B.B.B.B.B.B.B.B.B.B.B.Z.B.B.B.N.N.D.p.j o / =.5.$.y t w e y $.$.$.>.1.M y @.y m @.m M $.{ u y B -.5 u.B.V.B.B.B.e.VXVX",
"VXVXc.C.B.B.B.B.B.B.B.B.B.B.B.B.N.x.g.x S N t 4 5 4.5.m 6 $.B 0.w.0.e , > 6 y M m r m y y M -...> @.2.B t - , , j.C.C.B.B.VXVXVX",
"VXVXi.B.B.B.B.B.B.B.B.B.B.V.B.x.r ( ' X.X.} y $.5.M - e  Xb @ Z OXkXjXyX+X XM ; e -.y -.5...; q.@X X|.oXiXyX+X X3 $ c.A.i.VXVXVX",
"VXVXVXm.B.B.B.B.B.B.B.B.Z.B.x.) 7.4.4.$.M $.@.$.2 =  XkX|..XOX    @ jXmXmXmXjXrXw.6 4.:.4 w.BXbXoX.XC   @ uXmXmXjX@Xi d + VXVXVX",
"VXVXe.B.B.B.B.B.B.B.V.V.B.x.6 ,.>.>.y y y y -.; q.yXmXtX  .X.Xv oX  v MXmXmXmXmXmXrX..B tXmXmXiX  +XC Z C   jXmXmXmXbX@X. VXVXVX",
"VXVXB.B.B.B.B.B.B.Z.B.m.u.) ,.:.1.t M -.>.4.; oXmXmXmX|.  #   OXmXZ   uXmXmXmXmXmXbXo rXmXmXmXz.  @   jXuX  @XmXMXmXmXmXkX# VXVX",
"VXe.B.B.B.B.B.B.C.B.h.) ] 6.:.,.1.@.u y m , +XmXmXmXmXC   |.oX  C +   rXmXmXmXmXmXkXw 1.+XbXmXb   oXZ + v   .XmXmXmXmXmXmX|.VXVX",
"VXVXN.B.B.B.B.Z.B.u._ <.3.;.:.:.,.<.1.-.1.2 rXmXmXmXmXb           +   yXmXmXmXMXmXrX/ <.) *.XXn         .   oXmXmXmXmXmXjX8 VXVX",
"VXVXf m.B.V.B.B.p.( 3.=.;.:.:.,.1.} y >.,.<.> .XNXmXmX|.  # . . #   v MXmXmXmXmXnXq. .<.3.=.` :.,.{ < X   # jXmXmXmXbXyX0.- VXVX",
"VXVXVXVXr.s.a.a.y 7.;.,.:.:.:.;.:.#.e { <.;.4.` M +XbXNXC         b jXmXmXmXNX+X2...1.:.:.,.1.>.:.<.1.-.o rXbXyX+X XB ;  .8 VXVX",
"VXVXVXVXVX= _ _ ,.,.:.:.:.:.;.,.:.,.7.:.:.:.:.4.:.: M oX+X.X|..X+XjXNXuXrXXXM :  .<.:.:.,.;.,.,.:.:.;.1.6.2.< 4 / ` :.9.;.VXVXVX",
"VXVXVXVXVX%.8.,.:.:.:.:.:.,.;.:.:.:.:.;.1.:.:.:.1.8.:.) ` 2.2.q.0.2.t 6 : ` ,.4.1.:.:.:.:.:.:.:.:.:.;.:.;.:.t #.9.1.<.;.1 VXVXVX",
"VXVXVXVX< ,.;.1.:.:.:.:.:.:.:.:.:.:.:.>.>.1.;.,.:.:.=.,.6.,.=. . .o.:.6.4.4.:.,.,.,.:.,.>.:.:.:.:.:.,.:.:.,.:.< >.=. .< VXVXVXVX",
"VXVXVXVX .<.;.:.:.:.:.:.,.;.:.:.:.:.:.,.>.>.>.>.>.,.,.:.,.:.1.<.,.,.1.;.:.:.:.*.#.} { #.,.:.:.:.:.:.,.:.:.:.,.{ t a F % VXVXVXVX",
"VXVXVX< ,.:.:.:.1.;.=.,.:.:.:.,.:.:.:.:.;.,.:.,.>.1.,.,.,.,.=.<.,.:.:.:.:.#.{ { | *.;.y { ;.;.:.:.:.;.:.:.:.:.=.9 Q W P VXVXVXVX",
"VXVXVX| <.:.:.:.:.:.:.;.:.:.:.;.:.:.,.;.:.,.:.:.o. .{ u p p p u | =.7.=.%.>.,.7.<.:.,.<.-. .>.:.:.:.:.:.:.:.1.=.p Q W F VXVXVXVX",
"VXVX1 :.:.:.:.:.:.:.,.=.:.1.:.:.:.:.:.:.:.:.:.:.u D J Q Y Y P J K 0 u #.>.=.#.@.#.;.;.:.,.,.;.1.;.:.:.:.:.:.,.=.+.Y T & VXVXVXVX",
"VXVXr 7.;.:.:.:.:.:.:.>.:.:.:.:.,.:.:.:.:.;.:.&.D ^ R R L R E E R R L &.%.%.2 2 2 { | &.;.1.,.,.,.,.1.:.:.:.,.7.} U q X VXVXVXVX",
"VXVX| 6.:.:.:.:.:.:.:.:.:.:.:.:.;.:.,.;.:.:.:.=.0 Y R R F G F P R W R I ! ! ! ! ~ ! -.s +.a +.M +.#.#.*.=.,.=.%.9 G H O VXVXVXVX",
"VX# o.<.;.:.:.:.:.:.:.:.:.;.:.:.:.:.:.:.:.:.:.:.| 0 J T ^ Y H D G D L U Y T T T T T T T T T T Y Y P L q 9 9 0 K L ^ R VXVXVXVXVX",
"VX1 :.:.:.:.:.:.:.:.:.:.:.,.:.;.:.:.:.:.:.:.:.:.7.&.u 0 H Y W W R I F D q D D D F F K L L L L F D D D H L Y R R ^ ^ & VXVXVXVXVX",
"VXw 7.:.:.:.:.:.:.:.1.:.:.,.:.,.:.:.:.:.:.:.:.:.:.:.,.*.{ p q J Q T W E E R P P P P I H L L L I P P T R R R R R Y q $ VXVXVXVXVX",
"VX8 <.;.:.:.:.:.:.:.:.:.:.;.:.:.:.:.:.:.:.:.,.;.:.:.:.:.<.=.&.{ p 0 J Y T E W W W W E E R W W W W E R R E T J D u ..VXVXVXVXVXVX",
"VXr 7.:.:.:.:.:.:.:.:.:.:.:.:.:.:.:.:.:.,.t | 6.,.:.:.:.;.:.:.<.=. .y p 0 K F H J J J H J H H F H L F F 0 0 u | 7.t VXVXVXVXVXVX",
"VXr :.:.:.:.:.:.,.:.;.,.,.;.:.,.:.:.:.:.1. .< { ,.:.:.:.1.=.:.:.1.,.,.=.=.| | { } { } } { { { { | | | %. .=.1.:.6.2 VXVXVXVXVXVX",
"VXy 7.:.:.:.:.:.;.:.,.:.:.:.:.:.:.:.:.:.:.,.:.w { ,.:.:.:.:.:.:.,.:.:.:.=.<.<.,.,.,.7.<.<.,.7.7.7.<.<.<.<.,.,.:.,.8 VXVXVXVXVXVX",
"VX3 6.;.:.:.1.:.:.:.;.:.:.:.,.;.:.:.:.:.:.:.:.,.:.:.;.:.:.:.:.:.:.:.:.:.:.:.;.:.:.:.:.,.:.:.:.:.:.:.,.,.,.,.=.8.8.1 VXVXVXVXVXVX",
"VXy.( 6.=.,.:.:.:.:.:.:.:.,.:.:.:.:.:.:.:.:.:.>.:.<.6.6.=.,.:.:.:.:.:.:.:.:.:.;.:.:.:.:.:.1.:.,.,.=.,.,.,.3.o._ ) O VXVXVXVXVXVX",
"f H.d.) 8.,.;.;.:.:.:.:.:.;.:.:.:.:.:.:.:.:.:.,.,.3 4 ( ,.3.,.=.:.:.:.:.:.:.:.,.:.:.<.6.<.:.<.,.:.,.=.3.:.) c d.b.f.VXVXVXVXVXVX",
"l T.W.f.4 X.,.=.=.:.:.:.:.:.:.:.:.:.=.,.:.:.,.<.e '.*X`.r )  .3.>.,.:.,.,.:.:.:.:.8. .4 w 2 7 O.3.3.:.( z n.J.W.W.W.VXVXVXVXVXVX",
"l W.E.W.b.x ) O.6.1.:.:.:.:.:.:.:.:.:.:.:.:.=. .N 7X9X7X2X'.V 3 <.1.=.,.3.1.;.<.<.3 V $X4X0X%Xn _ ) n d.F.T.E.W.W.W.VXVXVXVXVXVX",
"t.W.R.R.E.H.n.x 3 ' O.9.6.<.<.,.,.,.:.:.;.:.=.[ `.7XbXgX5XcXgX]., O.=.( ` X.8.) , '.qX5XhXmX9Xl.p.b.G.T.E.T.T.T.W.W.j VXVXVXVXVX",
"y.W.R.R.T.E.T.J.b.d.c 6 ( ' [ O.o.o.7.7.7.:.7.( `.7XvXgX5XcXhX9X2XN 2 `.[.V > `.2X5XxXxX6XwX5X{.M.!.E.R.T.T.T.T.W.W.J.. VXVXVXVX",
"j T.R.R.R.R.R.R.E.T.J.F.n.d.j.x N z n e e y N 1 [.wX5X5X7X5X&X'.2X`.eXhX9XvX`.$X'.'.hXhX3X3X7X{.M.Q.T.T.T.T.T.T.W.T.W.b.VXVXVXVX",
"y.T.R.R.R.R.R.R.W.R.E.E.W.T.W.H.J.G.F.F.F.F.J.m.{.wX5XwXMXgX2X&X$Xj.cXMXwXmX#X].qX6X5X3XxXhX8Xl.G.Q.T.T.T.T.T.E.W.T.T.W.f.VXVXVX",
"y.W.T.T.R.R.R.R.R.R.R.R.W.W.E.E.E.E.E.E.E.E.!.M.}.wX5X7XvX0X5X4X#XV [.$X{.].z.`.&X6XMX0XvXvX6Xl.J.Q.T.T.T.T.T.T.T.T.T.T.W.j VXVX",
"n.W.R.R.R.T.R.R.R.R.R.R.T.E.W.W.T.T.T.T.W.W.!.M.{.cXvX5X5X7X9X%X&X'.2X4XuX9X$X&X$X2XcXgX3X5X6Xk.H.E.T.T.T.T.T.T.T.T.T.T.W.W.. VX",
"W.T.R.R.R.R.R.R.R.T.T.R.R.R.T.T.T.T.T.T.W.W.Q.M.{.hXgX8X5XvXMXwX2Xl *XwXbX&Xu.'.5X7X5X5XgX0X2Xn.T.R.T.T.T.T.T.E.T.T.T.T.T.T.b.VX",
"W.T.R.T.R.R.R.R.R.R.R.R.R.T.T.T.T.T.T.T.T.T.!.m.}.6X8X6X6XwXgX*Xg.J.v.f.f.x.W.c.z.&X7X5XMXcX}.v.Q.R.T.T.T.T.T.T.T.T.T.T.T.T.T.u."
};
