/* XPM */
static char *_00b44f5521d4dbaf3bf3d08b7c057f1tqW49ULiTaQrpoou[] = {
/* columns rows colors chars-per-pixel */
"64 64 129 2 ",
"   c #A7A6A1",
".  c #AAA7A2",
"X  c #ADABA6",
"o  c #AEADA8",
"O  c #B1AEA7",
"+  c #B2AFAA",
"@  c #B5B3AD",
"#  c #B8B4AE",
"$  c #B7B3B0",
"%  c #B9B5B0",
"&  c #BDBAB5",
"*  c #C6C2BD",
"=  c #C9C4BE",
"-  c #CBC6C0",
";  c #CCC9C3",
":  c #D2CDC7",
">  c #D2CFCA",
",  c #D4D1CA",
"<  c #D9D6CF",
"1  c #DAD7D2",
"2  c #DCDAD5",
"3  c #DEDDD8",
"4  c #E1DCD6",
"5  c #E2DFD9",
"6  c #E5E3DD",
"7  c #E9E5DF",
"8  c #E7E5E1",
"9  c #E9E6E1",
"0  c #ECEAE5",
"q  c #EFEEE9",
"w  c #EEEDE8",
"e  c #EFEBE8",
"r  c #F0EBE5",
"t  c #F1ECE6",
"y  c #F0EDE6",
"u  c #F2EDE7",
"i  c #F1EEE7",
"p  c #F1ECE8",
"a  c #F0EDE8",
"s  c #F0ECE9",
"d  c #F1EEE9",
"f  c #F3EEE8",
"g  c #F2EFE8",
"h  c #F1EDEA",
"j  c #F0EFEA",
"k  c #F2EFEA",
"l  c #F2EEEB",
"z  c #F4EFE9",
"x  c #F3EFEC",
"c  c #F0EFEA",
"v  c #F4F0E7",
"b  c #F3F0E9",
"n  c #F1F0EB",
"m  c #F3F0EB",
"M  c #F5F1E8",
"N  c #F6F2E9",
"B  c #F5F0EA",
"V  c #F4F1EA",
"C  c #F6F1EB",
"Z  c #F5F2EB",
"A  c #F7F3EA",
"S  c #F2F1EC",
"D  c #F3F2ED",
"F  c #F5F0EC",
"G  c #F4F1EC",
"H  c #F4F0ED",
"J  c #F6F1ED",
"K  c #F5F2ED",
"L  c #F7F2EC",
"P  c #F6F3EC",
"I  c #F4F3EE",
"U  c #F7F2EE",
"Y  c #F6F3EE",
"T  c #F7F4ED",
"R  c #F5F4EF",
"E  c #F7F4EF",
"W  c #F5F0EC",
"Q  c #F8F4E9",
"!  c #F9F5EA",
"~  c #F8F4EB",
"^  c #FAF6EB",
"/  c #F8F3ED",
"(  c #F8F3EF",
")  c #F9F5EC",
"_  c #FBF7EC",
"`  c #FAF6ED",
"'  c #F9F4EE",
"]  c #F8F5EE",
"[  c #FAF5EF",
"{  c #F9F6EF",
"}  c #FBF7EE",
"|  c #FCF8ED",
" . c #FCF8EF",
".. c #F7F3F0",
"X. c #F6F5F0",
"o. c #F7F6F1",
"O. c #F9F4F0",
"+. c #F8F5F0",
"@. c #F8F4F1",
"#. c #FAF5F1",
"$. c #F9F6F1",
"%. c #FBF6F0",
"&. c #FAF7F0",
"*. c #F9F5F2",
"=. c #FBF6F2",
"-. c #FAF7F2",
";. c #FCF7F1",
":. c #FBF7F3",
">. c #FBF8F1",
",. c #FBF8F3",
"<. c #FDF9F0",
"1. c #FEFAF1",
"2. c #FDF8F2",
"3. c #FCF9F2",
"4. c #FEF9F3",
"5. c #FDFAF3",
"6. c #FCF9F4",
"7. c #FFFAF4",
"8. c #FEFBF4",
"9. c #FFFBF5",
"0. c #FEFBF6",
"q. c #FFFCF5",
"w. c #FFFCF6",
"e. c #FFFDF6",
"r. c #FFFDF7",
"t. c #FDFAF6",
"y. c #FFFDF8",
"u. c #FFFEF8",
"i. c #FFFFF8",
/* pixels */
"2.' / r ' B B B B L / / L B B B B B B B B B B B / / / L L L L L / / / / / / / / ' / / / / / / / B B B ' T b B T t B b L B %.B r.",
"B f 5 1 * : = - - - - = = = = = - - - - - - - - = = = = = = = = = = = = = = = = = = = = = = = = ; ; - ; ; - - ; , - 7 7 %.' ' 2.",
"/ ' 6 6 # 4 1 4 5 4 4 4 4 4 4 4 4 4 4 4 4 4 4 4 4 4 4 4 4 4 4 4 2 2 2 2 2 2 2 2 2 2 2 2 1 1 1 1 1 1 < 1 1 < < 1 , @ 0 6 u.L %.%.",
"L L 9 0 % %.2.u.2.;.;.2.9.r.r.9.9.9.9.9.2.2.2.2.2.2.2.2.2.2.2.2.;.;.;.;.;.;.;.;.' ' ' ' ' ' ' ' ' ' B B L L B B t # ' 7 r.B ' %.",
"/ t 0 5 @ / 2.' ' ' ' %.;.;.%.' 2.2.2.;.;.%.%.' ' ' / / / / / / / / / / / / / / B B B B z z z z b b f t t f f t B @ B 7 L B B 2.",
"2.f f 4 % ' %.L ' %.;.%.' L B B ' ' / / / L L L B B B B B B B B B B B B B B B B z z z z z f f f w t f t w t t t t # t 9 L T B 9.",
"/ t t 4 % 2.' 2.' ' ' L f t z L B v v v v v v v B B B v v v v v f f f f f f f f f z z f t t t t 0 b L B f f b b w & b 0 2.B L 2.",
"/ B t 5 # 2.z 9.;.2.2.' B B ;.r.2.2.2.2.2.2.2.2. . . . . . .' ' ' ' ' ' ' ' ' ' ' ' ' ' ' / / / 7 t L B t t f b 9 & b 6 2.0 T ,.",
"L t 0 6 # %.' ' %.;.2.2.9 L ;.'  . .' ' '  . . .' ' ' ' ' ' ~ ~ ' / B B B L L B L L L B B B z t 5 T b t B t t t b # B 0 T T b r.",
"L t 0 6 # %.' ' %.;.2.2.9 L 2.'  .} } ' '  . . .' ' } ' ' ' ' ~ ' / B B B L L B L L L B B B z t 5 T b t B t t t B @ w 0 ' B t r.",
"L t 0 6 # %.' ' %.;.2.2.9 L 2.'  .} ' ' '  . . . . .' ' ' ' ' ' ' / B B B L L B L L L B B B z t 5 T b t B t t t ' O 7 0 ,.B w 9.",
"L t 0 6 # %.' ' %.;.;.2.9 / 2.;. . .' ' '  . . . . . .' ' ' ' ' ' / B B B L L B L L L B B B z t 5 T b t B t t t B O 9 9 %.L t 2.",
"L t 0 6 # %.' ' ' %.;.2.9 / 2.;. .} } ' ~  . . . . . ._ ~ ~ ~ ' ' / B B B L L B L L L B B B z t 5 T b t B t t t t @ t 7 B ' B 2.",
"B t 0 6 # %.' ' ' %.;.2.9 / 2.'  .} ' ' ~  . . . . ._ _ ~ ~ ~ ~ ' / B B B L L B L L L B B B z t 5 T b t B t t t 0 % T 9 b T B 2.",
"L t 0 6 # [ ' ' ' %.;.2.9 / 2. .' ' ' ' ~  . . . . .} ~ ~ ~ ~ ~ ' / B B B L L B L L L B B B z t 5 T b t B t t t t # B 0 B B f 2.",
"B t 0 6 # %.' ' ' %.;.2.9 / 2.;.' ' ' ' ~  . . .}  .~ ~ ~ ~ ~ ~ ' / B B B L L B L L L B B B z t 5 T b t B t t t B # f 0 T b w 9.",
"B t w 6 # %.' %.;.' ' %.9 ' 2.' '  . . . . .} ' ' ' ' ~ ~ ~ ~ ~ L L L L L L L L / B B B z / / r 4 ' B w b w t t t # b 9 b B t ,.",
"B t w 6 # ' ' %.%.' ' %.9 ' 2.' } }  . . .} } ' ' ' ' ' ~ ~ ~ ~ L L L L L L L L / B B B z / / r 4 ' B w b w t t t # b 7 f b t ,.",
"B t w 6 @ ' ' ' ' ' ' ;.9 ' 2.' } }  . .' } ' ' ' ' ' ' ~ ~ ~ ~ L L L L L L L L / z B B f B L 0 4 ' B w b w t t t # b 7 f b t ,.",
"B w 0 6 # ' ' ' ' ' ' ;.9 ' 2.' }  . . .' ' ' ' ' ' ' ' ~ ~ A A L L L L L L L L L z B B f B B 0 5 ' B w b w t t t # b 7 t f t ,.",
"B w 0 6 @ ' ' ' ' ' ' ;.9 ' 2./ ' ' ' ' ' ' ' ' ' ' ' ~ ~ ~ B B L L L L L L L L L z B B f B B 0 5 ' B w f 0 t t t # b 7 t f t %.",
"B w 0 6 @ ' T ' / / ' ;.0 ' ;./ ' ' ' ' ~ ' ~ ~ ' ' ~ ~ ~ B B B L L L L L L L L L z B B f B B 0 5 ' B w f 0 t t f # f 7 t t w %.",
"B w 0 6 @ ' T ' / / ' ;.0 ' ;.L ' ' ' ~ ~ ~ ~ ' ' ' ~ ~ A B B B L L L L L L L L L f B B t B B 0 5 %.L w f 0 f f f % f 7 w f w %.",
"B w 0 6 @ ' T ' / / ' ;.0 ' ;./ ' ' ' ~ ~ ~ ' ' ' ~ ~ ~ A B B B L L L L L L L L L f z B t B B 0 5 %.L w f 0 f f f % f 7 w f w %.",
"b 0 0 6 @ ' B T ' ' ' %.9 ' ;.B ' ' ' ' ' ' ' / / / / / / L L L L L L L B B B B z B B f z B f 0 6 T f 0 f 0 w w f % L 9 f f 0 %.",
"t 0 0 6 @ ' B T L / / ' 9 ' ;.B ' ' ' ' / / / / / / / / L L L L L L L L B B B B z B B f z z f 0 6 T f 0 f 0 w w f % S 9 w f 0 %.",
"t 0 0 6 @ ' B T B B B / 9 ' 2.B / / / / / L L L / / / / L L L L L L L B B B B B f B z z z z t 0 6 T f 0 f 0 w w q % b 7 0 w 0 %.",
"t 0 0 6 @ ' B B B B B / 9 ' 2.B / / L L L L L L / ' B L L L L L L L B B B B B B f z z z z z t 0 6 T f 0 f 0 w w f % b 7 w w 0 %.",
"t 0 0 6 @ ' B B L / L ' 9 ' ;.B L L L L L L L L L L L L L L B B L L B B B B B B f z z t f z t 0 6 ..f 0 f 0 e e f % L 9 e e 0 %.",
"t 0 0 6 @ T B B L / / ' 9 ' ;.B L L L L L L L L L L L L B B B B B B B B B B z z f z z t f f t 0 5 ..f 0 f 0 e e f % L 9 e e 0 %.",
"t 0 0 6 @ T B B B B B / 7 ' 2.B / / / L L L L L L L L L L L L L B B B B B B z z t z f t f f t 0 5 ..f 0 f 0 e e f % x 8 0 e 0 %.",
"w 0 0 6 @ T B B f z B L 7 ' 2.B / / / / L L L L L L L B L B L B B B B B B z z z t z f t f f t 0 6 ..f 0 f 0 e e e $ x 6 0 e 0 ..",
"f 6 f 6 + L T 1 5 5 L ,.b L %.T L B L B L B / ~ B B B B B B B B b b f f f f f f B f t t t t w 0 5 T f 0 w 0 0 0 f % b 7 0 q 0 L ",
"f 6 f 6 + T L , = = 2 2 > 5 w L B B B B B B B B ~ A A A B B B B L L B B B B B B B b f t t t t w 5 L f 0 0 0 0 0 f % b 7 0 0 0 L ",
"f 6 f 5 @ %.f ; & * 9 0 1 6 f 0 B B B B B B B B t t t t t t t t t t t t w w t t t w w 0 w 0 0 9 5 L f 9 0 0 0 0 f % b 7 0 0 9 T ",
"w 9 f 5 @ %.f > . & 0 6.0 %.u.f B B B B B B B B L L B B B B B B B B b b b b b b B b b f b b t t 6 L w 9 w 9 0 0 f % b 7 0 0 9 T ",
"0 9 b 5 @ L b 2 * ; w L 9 %.9.f z z z z z z z z z z z z z f f f t t t t t t t t t w 0 0 w w 0 0 7 L w 0 f 9 0 0 w % L 7 0 0 9 T ",
"0 9 f 5 @ f L 9 f f ,.S 9 f f 9 r r r r r r r r 0 0 0 0 0 9 9 9 0 0 9 9 9 9 9 9 9 9 7 9 9 9 9 7 9 T 0 0 f 9 0 0 0 % L 7 0 9 9 T ",
"0 9 w 5 @ w b b f f L f f L f f t t t t t t t t f f f f f t t t b b f f f f f f f f f f f f f f 9 L 0 0 f 9 9 0 0 % L 7 0 9 9 T ",
"f 6 0 5 # 0 f L f L b 0 L X.0 X.B B B B B B B B z z z f f f f f f f f f f f f f w 0 0 0 0 w 0 0 9 L 0 9 f 9 9 0 0 % L 7 9 9 9 T ",
"0 9 0 6 + b b f f %.b L f L 0 S f f f f f f f f f f f f f f t t f f f f f f f f f f f f w 0 0 0 9 0 0 w 9 9 f 9 0 # L 9 0 9 9 T ",
"0 9 0 6 + b S f w L q b 0 f 0 f f f f f f f f f t t t t w w w w 0 0 0 0 0 0 0 0 0 0 0 0 0 9 9 9 9 0 0 w 9 9 f 9 0 # L 9 0 9 9 T ",
"0 9 0 6 + b b f w b 0 f 9 b f f 0 0 0 0 0 0 0 0 f f f f f f f f f f f f f f f f f f f f f f f w 9 f 0 0 9 9 w 9 0 # L 8 0 9 9 L ",
"0 9 0 7 + b f w f b w f 9 L L L T T T T T T T T L L L b b b b b S S L L L S b f b b b b b b b f 7 f 0 0 9 9 0 0 0 # b 7 0 0 9 L ",
"0 9 0 7 + f f 0 f f q f 9 L %.L 0 0 0 0 0 0 0 0 f f f f f f f w e e e 0 0 0 0 0 0 0 0 0 0 0 0 0 6 L 0 9 0 9 0 0 0 # b 7 9 9 9 L ",
"0 9 0 7 + f f 0 f q 0 f 6 L %.f f f f f f f f f w w w 0 0 0 0 0 0 0 0 0 0 0 0 0 0 0 0 0 0 0 9 9 6 L w 9 0 9 0 0 0 @ b 7 9 9 9 L ",
"0 9 0 7 + f f 0 f 0 0 f 6 L %.0 0 0 0 0 0 0 0 0 q q q w w w w w f f e e e e e e e e e 0 0 0 0 0 5 %.w 9 0 9 0 0 0 @ b 6 9 9 9 L ",
"0 9 0 7 + f f 0 f 0 q b 6 T %.0 w w w w w w w w w w w w w w 0 0 0 0 0 0 0 0 0 0 0 0 0 0 0 0 9 9 5 %.f 7 0 9 9 0 0 @ b 6 9 9 8 L ",
"9 8 0 7 o q w 0 0 w 0 q 6 T X.0 w w w w w w w w 0 0 0 0 0 0 0 0 0 0 0 0 0 0 0 0 0 0 0 9 9 0 9 8 6 T 9 9 8 0 8 0 0 # S 7 9 8 8 S ",
"9 8 0 7 o q w 0 0 w 0 q 6 T X.0 w w w w w w w w 0 0 0 0 0 0 0 0 0 0 0 0 0 0 0 0 0 0 0 9 9 0 9 8 6 X.0 0 8 0 8 0 9 # S 8 9 8 8 S ",
"9 8 0 6 o q w 0 0 0 0 w 6 T X.0 0 0 0 0 0 0 0 0 0 0 0 0 0 0 0 0 0 0 0 0 0 0 0 0 0 0 0 9 9 0 9 8 6 X.0 0 9 0 8 0 9 @ S 8 9 8 8 X.",
"9 7 0 6 o w 0 0 0 0 9 0 6 L T 9 0 0 0 0 0 0 0 0 0 0 0 0 0 0 0 0 0 0 0 0 0 0 0 0 0 0 0 9 9 0 9 8 6 X.0 0 9 0 8 0 9 # S 8 9 7 7 X.",
"9 7 0 6 o w 0 0 0 0 9 0 6 T T 9 0 0 0 0 0 0 0 0 0 0 0 0 0 0 0 0 0 0 0 0 0 0 0 0 0 0 0 9 9 0 9 8 6 X.0 0 8 0 8 9 0 @ S 8 9 6 6 T ",
"9 7 0 6 X w 0 0 0 0 9 0 6 T T 9 0 0 0 0 0 0 0 0 0 0 0 0 0 0 0 0 0 0 0 0 0 0 0 0 0 0 0 9 9 0 9 8 6 X.0 0 8 9 8 9 0 @ q 7 9 6 6 L ",
"9 7 0 6 X w 0 0 q 0 8 0 6 X.X.9 0 0 0 0 0 0 0 0 9 9 9 9 9 9 9 9 9 9 9 9 9 9 9 9 0 0 0 9 9 0 9 8 6 %.9 9 9 9 7 9 0 + 0 6 9 7 6 L ",
"8 6 0 6 X w 0 9 w 0 8 0 6 X.X.8 0 0 0 0 0 0 0 0 0 0 0 0 0 0 0 0 9 9 9 9 9 9 9 9 0 0 0 9 9 0 9 8 6 T 9 9 7 9 6 9 0 X 9 6 9 9 7 T ",
"7 6 b 6 . b 7 0 8 9 8 8 9 f q 8 8 8 8 8 8 8 8 8 7 7 7 7 7 7 7 7 7 7 7 7 6 6 6 6 6 6 7 7 7 7 7 7 9 f 0 7 6 6 6 9 9 @ L 9 9 0 2 ,.",
"w 6 b 6 o q 9 0 0 w 0 9 0 b q 0 q q q q q q q q q q q q q q q q q q q q w w w w 0 0 w w q w w w 0 b f 9 9 9 9 0 7 # f 9 6 9 5 b ",
"0 1 0 3 o 8 8 7 8 9 8 6 8 0 0 7 0 0 0 0 0 0 0 0 0 0 0 0 0 0 0 0 9 9 9 9 9 9 9 9 9 9 9 9 9 8 9 8 6 0 9 6 6 6 6 9 9 & L 0 6 9 9 f ",
"8 3 q 0 @ q w 8 0 0 0 9 0 w 0 9 9 9 9 9 9 9 9 9 0 0 0 0 0 0 0 0 9 9 9 9 9 8 8 9 9 9 9 9 9 8 8 8 9 0 9 7 9 9 9 0 9 @ L 9 5 9 5 f ",
"3 6 0 8   0 0 8 9 9 9 8 8 0 9 8 8 8 8 8 8 8 8 8 8 8 8 9 9 9 9 8 8 8 8 8 8 8 8 8 8 8 7 7 7 7 7 6 6 9 6 6 9 6 6 9 0 X %.9 5 0 2 ;.",
"8 w 0 7 o 0 0 q 0 0 0 0 0 0 0 0 0 0 0 0 0 0 0 0 w w w w w w w w w w 0 0 0 0 0 0 0 0 0 9 9 8 8 8 9 9 9 9 0 9 9 0 7 + L 6 6 0 1 %.",
"6 5 6 1 & 1 2 3 2 2 2 2 2 2 2 3 2 2 2 2 2 2 2 2 2 2 2 2 2 2 2 2 2 2 2 2 2 2 2 2 2 2 2 1 1 1 1 1 1 2 1 1 4 2 1 2 1 * 0 2 6 7 5 p ",
"X.q 6.f 0 0 0 0 9 9 0 0 0 9 0 0 0 0 0 0 0 0 0 0 9 9 9 9 9 9 9 9 0 0 0 0 0 0 9 9 0 0 0 0 9 9 9 8 9 9 9 9 0 9 7 0 6 9 ;.0 %.L 9.;."
};
