/* XPM */
static char *result[] = {
/* columns rows colors chars-per-pixel */
"64 64 120 2 ",
"   c black",
".  c #0A0706",
"X  c #110F0D",
"o  c #12100E",
"O  c #0D1A1B",
"+  c #131310",
"@  c #181716",
"#  c #161917",
"$  c #1A1A16",
"%  c #161C1B",
"&  c #1A1D1B",
"*  c #221C16",
"=  c #221C1A",
"-  c #2B1D1C",
";  c #341F1E",
":  c #1C211E",
">  c #24211D",
",  c #2A231E",
"<  c #3D221F",
"1  c #172323",
"2  c #1A2425",
"3  c #1B2628",
"4  c #1E292A",
"5  c #252423",
"6  c #2A2624",
"7  c #272826",
"8  c #2B2926",
"9  c #292728",
"0  c #232C2D",
"q  c #2D2C2B",
"w  c #352321",
"e  c #3E2422",
"r  c #352827",
"t  c #382927",
"y  c #322E2C",
"u  c #3C2C2A",
"i  c #26302F",
"p  c #2F312E",
"a  c #33322E",
"s  c #262F31",
"d  c #292F32",
"f  c #263132",
"g  c #2C3334",
"h  c #343433",
"j  c #393735",
"k  c #3C3A36",
"l  c #373938",
"z  c #3B3C3B",
"x  c #56251E",
"c  c #5F271C",
"v  c #60271D",
"b  c #442624",
"n  c #492625",
"m  c #442D25",
"M  c #4D2B26",
"N  c #442E2A",
"B  c #4C2D2A",
"V  c #542720",
"C  c #552B25",
"Z  c #5C2B25",
"A  c #552D29",
"S  c #5A2E2A",
"D  c #46322C",
"F  c #4A322D",
"G  c #54312C",
"H  c #5D322C",
"J  c #443430",
"K  c #4D3631",
"L  c #4D3A34",
"P  c #4F3F39",
"I  c #5C3532",
"U  c #513D37",
"Y  c #5A3835",
"T  c #503E38",
"R  c #642C25",
"E  c #6A2F26",
"W  c #6C2F28",
"Q  c #6B3027",
"!  c #64322C",
"~  c #6D322A",
"^  c #73342C",
"/  c #79372E",
"(  c #76382E",
")  c #79382F",
"_  c #643630",
"`  c #6B3630",
"'  c #663933",
"]  c #6C3A33",
"[  c #753730",
"{  c #7A3731",
"}  c #763A31",
"|  c #7C3B32",
" . c #7C3F38",
".. c #3E403E",
"X. c #49423F",
"o. c #7D4037",
"O. c #7D4139",
"+. c #3F4242",
"@. c #424545",
"#. c #46494A",
"$. c #494C4E",
"%. c #554541",
"&. c #554C48",
"*. c #5C4E49",
"=. c #5E504B",
"-. c #474C50",
";. c #4A4D51",
":. c #585851",
">. c #615450",
",. c #646461",
"<. c #676B64",
"1. c #6B6B67",
"2. c #686E6A",
"3. c #73726E",
"4. c #813E35",
"5. c #813F38",
"6. c #824037",
"7. c #834239",
"8. c #8A443B",
"9. c None",
/* pixels */
"9.+ o + o + X X X X X X X X X o o o o o o o o X X X X o . j y a y ..a   + o o o X X X o X X X o X o o o + X X X X X X X + + o $ ",
"9.$ 5 5 $ & & & % & % % % % & & % % & : : : % & % % & :   ,.<.3.<.<.:.  : : # : % & # % % # % : % : % % % & % % % % % @ & & > 9.",
"9.9.5 5 > w m D D D D D D D D F D D D D D D D D D D D D m %.>.=.*.*.X.m F J D m N D F F D D F F F K K L L L P P P L y 7 q 9 9.9.",
"9.9.7 5 2 b ! ! ! ! ! ! ! ! ! ! ! ! ! ! H ! ! ! ! ! ! ! ! Z c c v v R Q ! ! ! ! ! ! S F G G G G G F G F B N N N N u 6 q p l 9.9.",
"9.9.q 8 3 M | [ ` H H H H H H H H H H H H H H H H H H H H ! I _ ! H H H H H H H I H B u N D J u u u u J L K J D J J 6 p h z 9.9.",
"9.9.h y 0 _ 8.=.o.` _ _ _ ! ! ` _ _ ] } ] ` _ ! H ! ] _ ] ] ] ] ` ! ! H H ` ` ` ] ] ] ] ` ` ~ H ` ] ! H H ] O.} o.} A 0 y @.9.9.",
"9.9.z a i ' 8.7.O.o.O.} o.} ( o.o.o.O.O.o.o.| o.( ] o.o.o.O.O.O.o.o.o.o.` o.o.o.O.O.O. .} O.o.~ o.o.o.o.} H _ o.} } I g a @.9.9.",
"9.9.z h g ' 8.O.o.o.O.} o.( ] o.o.o.O.O.O.O.|  .} ( o.o.| O.O.O.O.o.o.} ~ o.o.o.O.O.O.O.O.} O.~ o.o.o.] | O.` } o.O.I g y #.9.9.",
"9.9.z k h ] 8.>.o.o.o. . .[ [ 7.7.o.o.7.O.O.|  .| ) 4.4.5.5.4.4.o.o.} } [ o.7.o.o.O.O.O. . .| ( | o. . . . .} 5.o.7.Y g h #.9.9.",
"9.9.P k l | 8.8.O.} 6.|  .| [ 7.7.o.7.7.7.7.4. .| ) 8.8.5.5.5.4.o.o.} o.[ o.o.7.7.8.7.7.4.| | [ o.7.6.4.|  .}  . .7.Y g y #.9.9.",
"9.9...l g ' 8.8.8.| o.6.o.} | 7.7.O.7.7.o. .4.4.| [ 8.5.5.5.4.4.4.4.o.| [ 7.7.7.o.7.7. .4.4.| ( o.7.5. .O.| }  .4.6.I g y #.9.9.",
"9.9.z l g ] 8.8.7.o.6.o.6.| } 7.7.O.7.7.7.7. .4.| [ 5.5.5.5.8.4.6.o.o.o.( 4.7.7.7.8.7.7.6.o.o.( o.o. . . .O.}  .5.6.I g y #.9.9.",
"9.9.z k g ] 8.8.7.| 6.4.6.o.( 7.6.6.8.8.7.6.4.6. .} 7.6.4.4.4.4.4.4.6.| } 7.7.4.7.8.8.o. .4.4.( 6.6. .4.O.| }  .4.4.Y g y #.9.9.",
"9.9.z h g ] 8.8.6.4.4.4.6.| ) 7.7.6.7.8.7.4. .6.| | 6.7.4.4.4.4.4.4.6.| ( 6.7.7.7.8.8.4.4.4.o.(  .4. .5.o.o.[ | 4.7.I g y ;.9.9.",
"9.9.z h g ] 8.8.6.4.6.| o.| | 6.6.6.8.6.4.4.| 6.| | 6.7.4.4.4.4.4.6.6.| | 4.4.6.o.7.7.4.4.4.| / 4. . .4.o.| / 4.4.4.I f y $.9.9.",
"9.9.z j i ] 8.8.6.| 6.| | | ( 6.6.6.6.4.6.4.| | | ) 4. .4.4.4.4.| | | | (  .4.6.7.7.4.4.| | o./ | 4.| | | | ^  .4.6.H i r $.9.9.",
"9.9.z h 0 ] 8.7.4.4.4.4.4.W / 4.4.4.4.4.4.4.^ 4.4.4.4.4.4.4.4.4.4.4.4.4.v 4.4.4.4.4.4.4.4./ 4.^ |  .4.|  .| [ | 5.5.I g 6 $.9.9.",
"9.9.z h g ] 8.7.4.4.4.4.4.4.W 4.4.4.4.4.4.4.4.4.4.v 4.4.4.4.4.4.4.4.4.Q 4.4.4.4.4.4.4.4.4.4.4.^ | 4.4.|  .} [ | 4.4.I s 6 -.9.9.",
"9.9.z y s ] 8.7.4.4.4.4.4.4.W 4.4.4.4.4.4.4.4.^ 4.4.4.4.4.4.4.4.4.4.4.4.W 4.4.4.4.4.4.4.4./ 4.W | 4. .| | | ` | 4.4.I s 6 -.9.9.",
"9.9.z y 0 ~ 8.5.4.W 4.4.^ ^ 4.4.4.4.4.4.4.4.4.4.v 4.4.4.4.4.4.4.4.W 4.W 4.4.4.4.4.4.4.4./ 4.4.^ |  .| | | { [ | | 4.H f 6 -.9.9.",
"9.9.z q 0 _ 8.7.4.^ 4.^ 4./ ^ 4.4.4.4.W ^ 4.W 4.4.4.4.v v 4.4.4.4.4.E 4.4.4.4.E 4.4.4.4./ 4./ / | | | | | [ [ } | | G s , $.9.9.",
"9.9...9 0 _ 7.5.4.4.4.4./ / ^ 4.4.4.4.4.4.4.4.4.4.v 4.4.4.4.4.4.4.4.v 4.v 4.4.4.^ 4.4.4.4./ / W | | | | | } ` | | 4.I f r $.9.9.",
"9.9.z q 0 _ 8.4.4./ 4.^ 4.^ ^ 4.v 4.4.4.4.W W 4.4.4.4.v 4.4.4.4.4.v 4.4.4.4.4.4.4.4.4.W 4./ 4./ | | | | | [ ~ } | 4.H s 6 -.9.9.",
"9.9.z q s ~ 5.4.4.^ 4.4.4.^ W 4.4.4.4.4.4.4.4.4.v 4.4.4.4.4.4.4.4.4.4.4.E 4.W 4.W 4.4.4./ 4./ ^ ) ) | | | | ~ | { 4.H 0 , ;.9.9.",
"9.9.z q 0 _ 7.5.4.) | { / ^ ^ / 4.4.4.4.4.4.4.4.4.v 4.4.4.4.4.4.4.4.4.v 4.4.4.4.4./ / 4./ / / W ) ( ) | [ | ` | |  .I 0 > -.9.9.",
"9.9.z q 4 _ 7.5.| ) 4.) / ^ ^ 4.4.v 4.4.4.4.4.c v 4.4.4.4.4.v 4.4.4.4.4.v 4.v 4./ 4.4./ 4./ / ^ ( | [ ) | [ ~ [ / 4.S 0 - -.9.9.",
"9.9.z y 0 ! 4.4.| / / / / ^ ^ ) 4.v v 4.4.v v 4.4.4.4.v v 4.v 4.v 4.v v c 4.4.4./ / ) / ^ / / W ) ) ( ( / ^ ~ ^ { { S 0 > -.9.9.",
"9.9.l q 0 ! 4.4.| / ) / 4.^ ^ / 4.4.4.4.4.4.4.4.c c 4.4.4.4.4.4.4.4.4.4.4.4.v 4./ / 4./ / / / ^ / / [ ( [ ^ ~ [ / | S s > ;.9.9.",
"9.9.z 9 4 ! 7.4.| / ) ) 4.^ ^ / 4.v 4.v 4.4.4.4.4.v v 4.4.4.4.4.4.4.4.4.v 4.4.v ) ) 4.4.) ) ^ ^ / / / [ ( ^ ~ ^ [ | S 0 > $.9.9.",
"9.9.z q 4 H 4.| | / ) ) / ^ ^ / 4.4.4.4.4.4.v 4.4.4.4.4.v 4.4.v 4.4.v c 4.4.4.4.) / ) ) ) ) ) ^ [ | | [ ( ( ! / | [ S 0 , $.9.9.",
"9.9.l 9 4 H 5.| 4.{ 4.4.4.) ) 4.4.4.4.4.4.4.4.4.4.v 4.4.4.4.4.4.4.4.4.4.4.4.4.4.4.4.) 4.4.4.4.) | | | | | | ( ^ / / S 4 > #.9.9.",
"9.9.z 6 3 S 4.' _ ) | ) ) 4.4./ 4.4.v 4.4.v 4.4.4.4.4.4.4.4.4.4.4.v 4.4.4.v 4.4./ 4.) 4.) ) ) ) | | ) ) ( | ) / / [ A 0 > #.9.9.",
"9.9.l 5 1 H / X.%.^ o.) ^ 4.4.^ ) ) | ) ) ) ) ( ) ) ) ) ) ) ) ) 4.4.4.v 4.4.4.4.W 4.v n Z A A B B N n N N u t u r 6 = 5 = #.9.9.",
"9.9.l 5 2 A ^ m J ^ 4.) 4.^ 4.4.4.) 6.) 6.4.) o.o.) 6.o.6.6.) o.4.4.4.4.4.4.v 4.4.4.4.R [ [ [ [ ` [ ` _ ! ! ! S S S w 2 X @.9.9.",
"9.9.l > 2 A ( R x ( ) ) ^ ^ W / ) ) ) ( / / o.( / / ) ) ) ) o.( v 4.4.v 4.W 4.4.W 4.4.4.{ { 4.{ { { { { | | / / ) ) A 4 - #.9.9.",
"9.9..., 4 C ) ^ ~ Z Z c v v c c Z Z Z H Z c Z c c x Z Z Z c Z c c c c c x c c c x c c c Z Z x x Z Z Z S Z Z C [ / / S 4 = #.9.9.",
"9.9.l 5 2 A o.^ ( ^ ( ^ 4.v Q 4.^ ^ ^ ) ) ^ ^ ^ ~ Q ( ^ ^ ^ / ^ W 4.4.v v W W 4.v 4.4.4.v 4.4.v [ ^ ^ ^ ^ [ E [ ^ / C 3 * #.9.9.",
"9.9.h 8 3 A o.^ ( ^ ( ^ W 4.4.W ^ / ( ) ) ) ^ ) ^ ^ ( ( / / / o.4.W W 4.W 4.4.W 4.4.4.v 4.v 4.4.[ [ / ^ ^ ^ E ^ ^ / S 3 * @.9.9.",
"9.9.l 5 1 H o.) ^ ^ ^ ^ 4.v E 4.^ / ) ( / ^ ^ ^ ^ ^ ^ ^ ^ / / ^ W 4.4.W W W W W 4.v 4.4.4.v 4.v ^ / ^ ^ ^ ^ W ^ / ( S 3 = @.9.9.",
"9.9.h 6 2 Z / ) ) ^ / ^ W 4.W Q ^ ( ) ^ / ^ ^ ^ ^ ^ ( ^ ^ / / / 4.W W 4.W 4.W 4.4.v 4.v 4.4.v 4.^ [ / ^ ^ W W ^ ^ / S 3 * @.9.9.",
"9.9.l 7 1 S | / ^ ^ ^ ^ ^ W Q 4.^ ^ / / ^ ^ ^ ^ ^ W ^ ^ ^ / / / W W 4.v 4.v 4.4.v 4.v 4.4.v 4.v ^ ^ ^ ^ ^ ^ W W ^ ^ A 2 = +.9.9.",
"9.9.h 5 2 A ) ^ / W ^ ^ 4.^ Q Q ^ ^ / / / ^ ^ ^ ^ W / ^ ^ / / ^ W 4.v 4.W v 4.v 4.4.v 4.4.v v 4.^ ^ ^ ^ W W E ^ ^ / S 2 = +.9.9.",
"9.9.h 6 3 C / / ^ ^ ^ / Q ^ Q 4./ ^ ) / ^ / ^ ^ W Q ^ ^ ^ / / / 4.W 4.v 4.4.4.v 4.v 4.4.4.4.4.v W ^ ^ W ^ ^ E W ^ ^ Z 2 * @.9.9.",
"9.9.h 5 3 C ( / / W ^ W W W ^ ^ ^ ^ ^ ^ / ^ ^ Q ^ W ^ ^ ^ ^ / ^ v 4.v 4.v 4.v 4.4.4.4.v v 4.v 4.^ ^ ^ ^ Q W E W ^ ^ Z 2 = @.9.9.",
"9.9.h 8 1 C / ^ ^ W ^ ^ ^ ^ Q ^ ^ ^ ^ ^ ^ ^ ^ ^ Q W ^ ^ ^ ^ ^ ^ 4.v 4.v 4.v 4.W v 4.4.4.v 4.v v W ^ ^ W ^ ^ R ^ ^ ^ S 3 = z 9.9.",
"9.9.h 6 1 C ^ / / W ^ ^ ^ Q Q ^ ^ ^ ^ ^ Q ^ ^ Q ^ Q / ^ ^ ^ ^ ^ W 4.v 4.v 4.v 4.v 4.v 4.4.v 4.v ^ ^ ^ ^ W ^ E W ^ ^ C 1 = z 9.9.",
"9.9.h 5 1 C ( ^ ^ W ^ ^ ^ W ^ ^ ^ ^ / / / / ^ ^ ^ Q ( ^ ^ ^ ( ) 4.v 4.v 4.v 4.W 4.4.4.v v 4.v 4.^ ^ ^ W W ^ E W W ^ S 1 = ..9.9.",
"9.9.a 5 2 V / ^ ^ W ^ ^ ^ W v ^ ^ ^ ^ / ^ Q ^ Q Q Q ^ ^ ^ ^ ( ^ v 4.v 4.v 4.v 4.v 4.v 4.4.v 4.v W W ^ ^ ^ W R W ^ ^ S 1 = z 9.9.",
"9.9.a 7 3 V / ( ~ Q ^ ^ Q W ~ ^ ^ ^ ^ ^ ^ ^ ~ ^ Q Q ^ ^ ^ ^ ( ^ ^ ^ Q ^ Q ^ ~ ^ ^ ^ ^ ^ ^ ^ ~ Q ^ Q ^ ^ ~ Q R ^ ^ ^ Z 1 = l 9.9.",
"9.9.h 5 1 C ^ ~ ^ Q ^ Q ~ W E ^ ~ ^ ~ ^ ^ ~ ^ Q Q Q ~ ^ ^ ^ ^ ~ Q ^ Q ~ Q ~ ^ ^ ^ ^ ~ ^ Q ~ ~ Q W ^ ^ Q Q E R Q ^ ^ C 1 = l 9.9.",
"9.9.p 6 1 V ( ^ ^ Q Q ^ Q ~ E ^ ~ ^ ~ ~ ~ ~ Q ^ ~ Q ^ ~ ~ ~ ^ ~ Q ^ ~ ~ Q ~ ^ ~ ~ ~ ^ ~ ~ ~ ~ Q Q ^ Q Q ~ ~ R E ^ ^ Z 1 > l 9.9.",
"9.9.h 5 1 C ( ~ ~ ~ ~ Q Q ~ E ~ ~ ~ ^ ~ ^ ~ ~ ~ Q Q ~ ~ ~ ~ ~ ^ Q Q ~ Q Q ~ ` ~ ~ ~ ~ ^ Q ~ Q Q ~ ~ ~ Q ~ W Z ~ W ^ C 2 > l 9.9.",
"9.9.h 5 1 C ^ ~ ~ Q ~ Q ~ ~ E ~ ~ ~ ~ ~ ~ ] ~ ~ Q Q ~ ~ ~ ^ ~ ~ ~ ~ ~ ~ Q ~ ~ ~ ^ ~ ~ ^ ~ Q ~ Q ~ Q ~ ~ Q Q R W W ^ C 2 5 l 9.9.",
"9.9.p 6 1 V ] ~ ~ ~ ] ~ ~ ~ ~ ~ ~ ~ ^ ~ ~ ~ Q Q Q Q ] ^ ~ ~ ~ ~ Q Q ~ ~ Q ~ ~ ~ ~ ~ ~ ~ Q ~ ~ Q ~ ~ Q ~ ~ ~ R W ^ ^ A 2 = h 9.9.",
"9.9.q 7 2 C ` ` ` ! ~ Q ~ ~ E ~ ^ ~ ~ ~ ^ ~ ~ ~ Q Q ~ ~ ~ ^ ~ ~ ~ ~ ~ ~ Q ~ ^ ~ ~ ~ ~ ~ ~ ~ ~ ! ~ ~ Q ~ ~ ~ R W Q ^ A 2 > l 9.9.",
"9.9.q 7 3 V ~ ! Q ~ Q ~ ~ ~ ~ ~ ~ ~ ` ^ ~ ~ ~ Q Q ! ~ ~ ~ ~ ~ ^ ~ ~ ~ ~ Q ~ ~ ~ ~ ~ ~ ( ~ ~ ~ Q ~ ^ ^ ~ ~ ~ R W ^ ^ A 3 5 h 9.9.",
"9.9.a 5 2 M ` ` ` R Q Q Q ~ R Q ~ Q ~ Q Q Q Q ~ Q R Q ~ ~ Q ~ Q ~ Q R R Q R Q Q ~ ~ E Q Q Q Q R ~ ~ W ~ ~ ~ E Q ^ ^ S 3 6 h 9.9.",
"9.9.p 5 : M ` ' ` ( } } } } ( o.| } [ } } [ } } } [ } | [ [ } } | ( } o.( o.} } [ [ [ } } } } [ } } | | | } ~ ~ ^ / G 1 & h 9.9.",
"9.9.p 5 2 B ! ! ! ^ ( } | } ( ( [ [ [ [ o.} } } } } ( [ } } [ [ ( ( | | ( ( } | | [ | | | | | ) | | | { } | / ^ ~ [ A 1 $ q 9.9.",
"9.9.p 7 2 A ` ` ] ^ ( ( ( ^ ^ ~ ^ ~ ^ ^ ~ ( ( ^ ^ ^ ^ ^ Q ^ ^ [ ( ] ^ ^ ^ ^ ^ ~ Q ^ E S ! ! ! H S S S S S S A S G B w % $ q 9.9.",
"9.9.9 7 2 M ~ ! ~ [ [ [ ] ^ ^ ~ ^ ^ ^ [ [ [ [ ^ ^ ^ ( ~ Q ^ ^ [ [ [ [ ^ ^ ( ] ^ ^ ^ Z e A A M n n b b < ; ; ; , - = % $ $ 9 9.9.",
"9.9.8 7 2 A ] ~ [ [ [ } ) ) ( | { / / [ | [ { { ( ( | ) { { { [ [ { [ { ( ( ) / / { { | { { { | { { { [ | | | [ { } n O @ 9 9.9.",
"9.9.7 5 2 B I _ ! ! _ ~ ~ ~ ~ ! ~ ! ! ! ! ! ~ _ ! ~ ! ~ ! ! ! ~ ! ~ _ ~ ~ ~ ~ ! ! ! ! ~ ! W ~ ~ ! ~ ~ ! ~ ! ~ ~ ~ ` B 2 : 9 9.9.",
"9.9.5 5 5 9.9.9.9.9.9.9.9.9.9.9.9.9.9.9.9.9.9.9.9.9.9.9.9.9.9.9.9.9.9.9.9.9.9.9.9.9.9.9.9.9.9.9.9.9.9.9.9.9.9.9.9.9.9.> 5 6 9.9."
};
