/* XPM */
static char *b223dfafa06f46bb8086823a6c7da798DMlSLiWIf3P8eqhi[] = {
/* columns rows colors chars-per-pixel */
"64 64 146 2 ",
"   c #B2B1AC",
".  c #BAB9B4",
"X  c #C6C5C0",
"o  c #CECBC6",
"O  c #D0CCC3",
"+  c #D1CEC9",
"@  c #D4D1CC",
"#  c #D8D4CB",
"$  c #DCD8CF",
"%  c #DBD7D4",
"&  c #DCDAD6",
"*  c #DEDDD9",
"=  c #E1DDD6",
"-  c #E1DED9",
";  c #E4E0D7",
":  c #E5E2DD",
">  c #E9E6DE",
",  c #ECE8DD",
"<  c #E6E5E1",
"1  c #E9E6E1",
"2  c #ECEAE5",
"3  c #EEEDE8",
"4  c #F1EDE6",
"5  c #F2EEE9",
"6  c #F4F0E7",
"7  c #F6F6EE",
"8  c #F6F5EE",
"9  c #F5F1EC",
"0  c #F8F4E9",
"q  c #F9F5EA",
"w  c #F8F4EB",
"e  c #FAF6EB",
"r  c #F8F3ED",
"t  c #FAF3ED",
"y  c #F8F3EF",
"u  c #F9F5EC",
"i  c #FBF7EC",
"p  c #FAF6ED",
"a  c #F9F4EE",
"s  c #F8F5EE",
"d  c #FAF5EF",
"f  c #F9F6EF",
"g  c #FAF7EE",
"h  c #FBF7EE",
"j  c #FCF5EF",
"k  c #F9F4ED",
"l  c #FAF8EC",
"z  c #F8F8EE",
"x  c #F9F9EF",
"c  c #FBF8EF",
"v  c #FCF8ED",
"b  c #FCF8EF",
"n  c #F3F2F0",
"m  c #F5F1F0",
"M  c #F7F3F0",
"N  c #F6F2F1",
"B  c #F7F3F2",
"V  c #F5F4F0",
"C  c #F6F5F0",
"Z  c #F6F5F1",
"A  c #F7F6F1",
"S  c #F6F5F3",
"D  c #F7F6F2",
"F  c #F5F4F1",
"G  c #F8F3F0",
"H  c #FBF3F0",
"J  c #F9F4F0",
"K  c #F8F5F0",
"L  c #F8F4F1",
"P  c #F9F4F1",
"I  c #FAF5F1",
"U  c #F9F6F1",
"Y  c #FBF6F0",
"T  c #FAF7F0",
"R  c #F9F5F2",
"E  c #F8F4F3",
"W  c #FAF5F2",
"Q  c #F8F7F2",
"!  c #F8F7F3",
"~  c #FBF6F2",
"^  c #FAF7F2",
"/  c #FCF7F1",
"(  c #FDF5F2",
")  c #F9F5F4",
"_  c #F8F4F5",
"`  c #FAF4F4",
"'  c #FBF7F4",
"]  c #FAF6F7",
"[  c #FAF6F1",
"{  c #FBF8F1",
"}  c #FAFAF2",
"|  c #FCF9F2",
" . c #FDFAF3",
".. c #FFFBF2",
"X. c #FFFCF3",
"o. c #FAF9F4",
"O. c #FAF9F5",
"+. c #FAF9F7",
"@. c #FDF8F4",
"#. c #FEF9F5",
"$. c #FDFAF5",
"%. c #FFFAF4",
"&. c #FFFBF5",
"*. c #FFFBF7",
"=. c #FFFCF5",
"-. c #FFFCF6",
";. c #FFFDF7",
":. c #FEFAF5",
">. c #F9F7FA",
",. c #F9F7F8",
"<. c #FAF8F9",
"1. c #FCF8F9",
"2. c #FEFAFB",
"3. c #FFFCF8",
"4. c #FFFCF9",
"5. c #FEFDF9",
"6. c #FFFDFA",
"7. c #FEFDFB",
"8. c #FFFEFA",
"9. c #FEFFFA",
"0. c #FFFFFA",
"q. c #FFFEFB",
"w. c #FFFFFB",
"e. c #FDFBFC",
"r. c #FCFAFD",
"t. c #FFFBFC",
"y. c #FFFDFC",
"u. c #FEFCFD",
"i. c #FFFCFD",
"p. c #FDFFFC",
"a. c #FEFEFC",
"s. c #FFFEFC",
"d. c #FFFEFD",
"f. c #FEFFFD",
"g. c #FFFFFD",
"h. c #FFFDFE",
"j. c #FEFCFF",
"k. c #FFFDFF",
"l. c #FDFFFE",
"z. c #FDFEFF",
"x. c #FEFEFE",
"c. c #FEFEFF",
"v. c #FFFEFF",
"b. c #FEFFFF",
"n. c white",
"m. c #FFFFFE",
/* pixels */
"e 0 e 6 X.i ..i i b / / ~ i i 8 ..} } } z z 8 8 z z i i z z z z i i i i i i i i } } } } } } } } ~ ~ ~ ~ ~ ~ ~ ~ ....0 e i 0 i 0 ",
"i e 0 , , $ ; = = = ; ; : : ; ; ; : : : : : : : : : ; ; ; ; ; ; : : : : : : ; ; ; ; ; ; ; ; ; : : : : : : : : : = : - 2 0 0 b e ",
"e i e , & O = = & & & = = & & & & & & & & & * * & & & & & & & & & & & & & & & & & & & & & & & & & & & & & & & & - = % 1 0 e i 0 ",
"0 e e 2 = # 0 0 @.@.@.;.3.3.3.3.3.g.g.g.g.g.g.g.g.g.g.g.g.g.g.g.g.g.g.g.g.g.g.g.g.g.g.g.g.g.g.g.g.g.g.3.3.3.3.3.@.y - 2 5 e i 0 ",
"y y 5 2 = # ~ y y y r ~ @.@.3.3.t.g.g.g.g.g.g.t.t.t.t.t.g.g.g.g.t.t.t.t.g.g.g.g.g.g.g.g.g.g.g.g.g.g.g.3.3.3.3.3.3.~ & 2 3 8 i y ",
"i r 4 2 = @ @.5 y y y y y r ~ ` ` >.t.g.g.g.g.g.g.g.g.g.g.g.g.g.g.g.g.g.g.g.g.g.g.g.g.g.t.t.t.t.g.g.g.g.g.g.g.3.3.y % 2 3 ~ y 0 ",
"~ r 5 5 - # 3.5 ~ G M y y 5 5 5 ` ` ` 1.1.g.g.g.g.g.g.g.g.g.g.g.g.g.g.g.g.g.g.g.g.g.g.g.g.g.g.g.g.g.g.g.g.g.g.g.g.M % 5 3 ~ 6 9 ",
"y y 4 5 = + @.5 5 5 5 5 y y M G M M M M M ` <.t.g.g.g.g.g.g.g.g.g.g.g.g.g.g.g.g.g.g.g.g.g.g.g.g.g.g.g.g.g.g.g.g.g.G % 5 2 ` y C ",
"y r 5 5 - # @.y 5 5 y 5 5 y 2 5 9 M y y M 9 3 C n <.g.g.g.g.g.g.g.g.g.g.g.g.g.g.g.g.g.g.g.g.g.g.g.g.g.g.g.g.g.g.g.C & 5 3 ~ y y ",
"y r 5 5 - # @.y y 5 ~ y 5 G 5 y 6 0 6 6 y 5 3 9 9 O.3.g.g.g.g.g.g.g.g.g.g.g.g.g.g.g.g.g.g.g.g.g.g.g.g.g.g.g.g.g.g.C & 5 3 ~ y y ",
"y r 5 4 = @ @.y y 5 ~ r y ~ y ~ 5 0 6 6 0 5 3 y 9 O.3.g.3.3.3.3.3.3.g.g.g.3.3.3.g.g.3.3.3.3.g.g.g.g.g.g.g.g.g.g.g.C & 3 2 C y y ",
"0 y 5 4 = @ @.y 5 5 ~ y y ~ y ~ 0 0 0 0 w 0 4 8 9 O.3.3.3.3.3.3.3.3.g.g.g.g.3.3.g.g.3.3.3.3.g.g.g.g.g.g.g.g.g.g.g.C & 3 2 C y y ",
"0 0 4 4 = @ ..0 5 5 i y y ~ y ~ w i w 0 ~ 0 5 C 9 O.g.3.g.g.g.g.g.g.g.g.g.g.g.g.g.g.g.g.g.g.g.g.g.g.g.g.g.g.g.g.3.C & 3 2 C 9 y ",
"0 0 4 4 = @ ..0 0 5 ~ r y ~ y ~ y i y y i y 5 M 9 O.g.g.g.g.g.g.g.g.g.g.g.g.g.g.g.g.g.g.g.g.g.g.g.g.g.g.g.g.g.3.g.C & 3 2 C 9 9 ",
"6 0 4 4 = @ ..0 0 0 / i r / y ~ r i y y ~ y 5 M n O.g.g.g.g.g.g.g.g.g.g.g.g.g.g.g.g.g.g.g.g.g.g.g.g.g.g.g.g.3.3.3.8 & 3 1 8 6 6 ",
"0 0 4 2 = @ ..0 0 0 ~ i r ~ 0 i G / ~ r ~ y 5 ~ 9 O.g.g.g.g.g.g.g.g.g.g.g.g.g.g.g.g.g.g.g.g.g.g.g.g.g.g.g.g.g.3.3.8 & 3 2 8 6 6 ",
"6 6 4 3 - # ;.0 0 0 } i i / r i j r i 0 i r 2 y 6 O.g.g.g.g.g.g.g.g.g.g.g.g.g.g.g.g.g.g.g.g.g.g.g.g.g.g.g.g.g.g.3.C & 3 2 8 3 6 ",
"6 9 3 3 * # @.0 0 5 ~ i r ~ 0 i j r i 0 i r 2 0 6 @.3.3.g.g.g.g.g.g.g.g.g.g.g.g.g.g.g.g.g.g.g.g.g.g.g.g.g.g.g.g.3.C & 3 2 8 3 6 ",
"5 6 3 2 * @ ..0 6 5 i 8 y i 0 i i r i 0 r r 2 y 6 @.3.3.g.g.g.g.g.g.g.g.g.g.g.g.g.g.g.g.g.g.g.g.g.g.g.g.g.g.g.g.3.C & 3 2 8 3 6 ",
"3 6 3 2 * @ ..6 6 5 i y 0 i 0 i r r r 0 r r 2 y 6 @.3.3.g.g.g.g.g.g.g.g.g.g.g.g.g.g.g.g.g.g.g.g.g.g.g.g.g.g.g.g.3.C & 3 2 y 3 5 ",
"3 6 3 3 * @ @.6 6 5 8 0 0 r 4 r r r r 0 r r 2 y 6 @.g.g.g.g.g.g.g.g.g.g.g.g.g.g.g.g.g.g.g.g.g.g.g.g.g.g.g.g.g.g.3.C & 3 2 9 3 3 ",
"3 6 3 3 * @ @.6 6 5 8 0 0 y 4 0 r 5 r 0 r r 3 y 6 @.g.g.g.g.g.g.g.g.g.g.g.g.g.g.g.g.g.g.g.g.g.g.g.g.g.g.g.g.g.g.3.C & 3 2 9 3 3 ",
"5 9 2 2 * @ ..6 0 5 i y 0 y 4 0 r 5 r 0 r r 2 y 6 @.g.g.g.g.g.g.g.g.g.g.g.g.g.g.g.g.g.g.g.g.g.g.g.g.g.g.g.g.g.g.3.C & 3 1 9 3 3 ",
"3 3 2 2 & @ ..6 0 6 ~ y 0 r 4 0 r 5 y 5 r r 2 y 6 @.g.g.g.g.g.g.g.g.g.g.g.g.g.g.g.g.g.g.g.g.g.g.g.g.g.g.g.g.g.g.3.C & 3 2 9 3 3 ",
"3 3 2 3 - @ } 6 5 0 y 6 5 0 0 0 r r 0 0 y 5 4 y 5 ;.3.3.g.g.g.g.g.g.g.g.g.g.g.g.g.g.g.g.g.g.g.g.g.g.g.g.g.g.g.g.3.y & 3 1 3 2 9 ",
"3 3 2 3 - @ } 6 4 0 y 6 5 0 0 0 5 r 0 0 y 5 4 y 5 ;.3.3.g.g.g.g.g.g.g.g.g.g.g.g.g.g.g.g.g.g.g.g.g.g.g.g.g.g.g.g.3.y & 3 1 3 2 6 ",
"3 3 2 3 - @ } 5 4 0 0 0 5 5 0 0 5 r 0 5 y 5 4 0 5 @.g.3.g.g.g.g.g.g.g.g.g.g.g.g.g.g.g.g.g.g.g.g.g.g.g.g.g.g.g.g.3.y & 3 < 3 2 6 ",
"3 3 2 3 * @ } 5 4 0 0 6 5 0 0 6 5 r 5 5 0 4 2 0 5 @.g.3.g.g.g.g.g.g.g.g.g.g.g.g.g.g.g.g.g.g.g.g.g.g.g.g.g.g.g.g.3.C & 3 < 3 2 5 ",
"3 3 2 3 * @ ~ 5 4 6 0 6 5 5 0 4 5 5 5 5 0 4 3 0 3 @.g.3.g.g.g.g.g.g.g.g.g.g.g.g.g.g.g.g.g.g.g.g.g.g.g.g.g.g.g.g.3.C & 3 1 3 2 5 ",
"3 3 2 2 * @ ~ 5 4 5 0 5 4 5 6 4 4 5 5 5 0 4 3 0 3 @.g.3.g.g.g.g.g.g.g.g.g.g.g.g.g.g.g.g.g.g.g.g.g.g.g.g.g.g.g.g.3.C & 3 < 3 2 3 ",
"3 3 2 2 * @ ~ 4 3 5 6 5 4 5 6 4 4 5 4 4 0 4 3 0 2 @.3.3.g.g.g.g.g.g.g.g.g.g.g.g.g.g.g.g.g.g.g.g.g.g.g.g.g.g.g.g.3.C & 3 < 3 2 3 ",
"2 3 2 2 * @ ~ 4 3 5 0 5 4 5 5 4 4 5 4 4 0 4 3 y 2 @.3.3.g.g.g.g.g.g.g.g.g.g.g.g.g.g.g.g.g.g.g.g.g.g.g.g.g.g.g.g.3.C & 3 < 3 1 3 ",
"2 2 : 6 - # y 5 5 6 6 5 5 5 5 5 6 5 5 5 5 5 5 3 + 3.O.O.g.t.g.g.g.g.g.g.g.g.g.g.g.g.g.g.g.g.g.g.g.g.g.g.g.g.g.g.g.C & 3 < 3 1 3 ",
"2 2 : 5 - # y 5 3 5 5 3 2 5 5 3 5 3 2 3 5 5 2 1 . ~ 3.1.g.t.g.g.g.g.g.g.g.g.g.g.g.g.g.g.g.g.g.g.g.g.g.g.g.g.g.g.g.C & 3 < 3 1 3 ",
"2 2 : 5 & # y 5 5 6 9 5 5 5 5 5 5 5 2 5 y 6 2 <   9 g.3.g.t.g.g.g.g.g.g.g.g.g.g.g.g.g.g.g.g.g.g.g.g.g.g.g.g.g.g.3.C & 3 < 3 1 3 ",
"2 2 : 5 & # y 5 5 6 9 5 5 5 5 5 5 5 5 5 6 6 3 2 X ~ g.3.1.1.g.g.g.g.g.g.g.g.g.g.g.g.g.g.g.g.g.g.g.g.g.g.g.g.g.g.3.C & 3 < 3 1 3 ",
"2 2 : 5 & # y 3 2 5 5 3 2 3 3 2 3 3 3 3 2 2 3 3 : O.g.3.g.t.g.g.g.g.g.g.g.g.g.g.g.g.g.g.g.g.g.g.g.g.g.g.g.g.g.g.3.y & 3 < 3 < 3 ",
"2 2 : 5 & # y 3 2 5 5 3 2 3 3 2 2 5 5 3 2 2 3 9 2 C 3.g.g.g.g.g.g.g.g.g.g.g.g.g.g.g.g.g.g.g.g.g.g.g.g.g.g.g.g.g.3.y & 3 < 3 < 3 ",
"2 2 : 5 & # y 3 5 5 6 5 3 5 5 5 5 5 5 5 5 5 3 5 1 C g.g.g.g.g.g.g.g.g.g.g.g.g.g.g.g.g.g.g.g.g.g.g.g.g.g.g.g.g.g.3.y & 2 < 2 < 2 ",
"2 2 : 5 & # y 3 3 5 5 3 2 3 5 3 2 2 2 2 3 3 2 1 < ~ g.3.>.g.g.g.g.g.g.g.g.g.g.g.g.g.g.g.g.g.g.g.g.g.g.g.g.g.g.g.3.y & 2 < 2 < 2 ",
"1 2 : 5 & @ 6 2 2 5 2 2 5 3 1 3 2 2 2 5 5 2 2 3 1 O.g.1.g.g.g.g.g.g.g.g.g.g.g.g.g.g.g.g.g.g.g.g.g.g.g.g.g.g.g.g.3.9 & 3 : 2 1 2 ",
"1 2 : 5 & @ 6 2 1 2 2 2 5 2 1 2 3 2 3 5 5 5 3 3 1 O.g.3.g.g.g.g.g.g.g.g.g.g.g.g.g.g.g.g.g.g.g.g.g.g.g.g.g.g.g.g.3.9 & 3 : 2 1 2 ",
"1 2 : 5 & @ 9 2 2 5 2 2 5 5 2 5 5 3 3 5 5 3 3 3 1 O.g.3.g.g.g.g.g.g.g.g.g.g.g.g.g.g.g.g.g.g.g.g.g.g.g.g.g.g.g.g.3.9 & 3 : 2 1 2 ",
"1 2 : 5 & @ 6 2 2 5 5 2 5 5 2 5 3 2 2 3 2 2 2 2 1 O.g.3.g.g.g.g.g.g.g.g.g.g.g.g.g.g.g.g.g.g.g.g.g.g.g.g.g.g.g.g.3.9 & 3 : 2 1 2 ",
"1 2 : 5 & @ 6 2 1 5 5 2 2 2 1 2 2 2 2 2 2 2 1 2 < ~ g.3.g.g.g.g.g.g.g.g.g.g.g.g.g.g.g.g.g.g.g.g.g.g.g.g.g.g.g.g.3.9 & 3 : 2 1 2 ",
"1 2 : 5 & @ 6 2 1 6 5 2 2 2 1 2 2 2 2 2 2 2 2 3 < ~ g.3.g.g.g.g.g.g.g.g.g.g.g.g.g.g.g.g.g.g.g.g.g.g.g.g.g.g.g.g.3.9 & 3 : 2 1 2 ",
"1 2 : 5 & @ 6 2 1 y 6 2 2 2 2 2 2 2 1 2 2 2 2 3 < ~ g.3.g.g.g.g.g.g.g.g.g.g.g.g.g.g.g.g.g.g.g.g.g.g.g.g.g.g.g.g.g.9 & 3 : 2 1 2 ",
"1 2 : 5 & @ 6 2 : 5 5 1 1 2 1 2 2 1 1 2 2 2 2 3 : C g.3.g.g.g.g.g.g.g.g.g.g.g.g.g.g.g.g.g.g.g.g.g.g.g.g.g.g.g.g.g.9 & 3 : 2 1 2 ",
"1 1 : 2 : + 5 2 1 5 5 1 1 2 1 2 2 2 2 2 1 2 2 2 : S g.g.g.g.g.g.g.g.g.g.g.g.g.g.g.g.g.g.g.g.g.g.g.g.g.g.g.g.g.g.g.9 & 3 : 2 < 2 ",
"1 1 : 2 : + 5 2 1 5 3 1 1 1 1 1 1 1 1 1 2 2 2 2 < S g.g.g.g.g.g.g.g.g.g.g.g.g.g.g.g.g.g.g.g.g.g.g.g.g.g.g.g.g.g.g.n & 3 : 2 < 2 ",
"1 1 : 2 : + 5 1 1 5 3 1 1 1 1 1 1 1 1 1 1 1 2 2 < S g.g.g.g.g.g.g.g.g.g.g.g.g.g.g.g.g.g.g.g.g.g.g.g.g.g.g.g.g.g.g.n & 3 : 2 < 2 ",
"1 1 : 2 : o 3 1 , 3 2 1 1 1 1 1 2 1 1 1 1 1 2 2 < S g.g.g.g.g.g.g.g.g.g.g.g.g.g.g.g.g.g.g.g.g.g.g.g.g.g.g.g.g.g.g.n & 3 : 2 < 2 ",
"1 1 : 2 : o 3 1 : 3 2 1 1 1 1 1 1 1 1 1 1 1 2 2 : C g.3.g.g.g.g.g.g.g.g.g.g.g.g.g.g.g.g.g.g.g.g.g.g.g.g.g.g.g.g.3.9 & 3 : 2 < 1 ",
"1 1 : 2 : o 3 1 : 3 2 1 1 1 1 1 , , 1 1 1 2 2 3 : C g.3.g.g.g.g.g.g.g.g.g.g.g.g.g.g.g.g.g.g.g.g.g.g.g.g.g.g.g.g.3.9 & 3 : 1 < 1 ",
": 1 : 2 : o 2 1 : 3 2 1 1 1 1 1 1 1 1 1 1 2 2 2 : ~ 3.3.g.g.g.g.g.g.g.g.g.g.g.g.g.g.g.g.g.g.g.g.g.g.g.g.g.g.3.3.3.9 & 3 : 1 : < ",
": 1 : 2 : o 2 1 : 5 2 1 1 1 1 1 3 2 2 2 1 1 1 1 : ~ 3.3.g.g.g.g.g.g.g.g.g.g.g.g.g.g.g.g.g.g.g.g.g.g.g.g.g.g.3.3.3.9 & 3 : 1 : < ",
": 1 : 2 - o 2 1 2 1 1 1 1 2 3 5 1 1 : : : 1 1 2 : y 3.3.1.3.3.3.3.3.3.3.3.3.3.3.3.3.3.3.3.3.3.3.g.g.g.g.3.3.3.3.3.9 & 3 - 1 : 1 ",
": 1 : 2 - o 2 1 : 1 2 3 2 1 : - 1 1 1 2 1 1 : - 1 y @.@.` @.@.@.@.@.1.1.1.1.1.1.3.1.3.3.1.3.3.3.g.g.g.3.3.3.3.3.g.9 & 3 : 1 : 1 ",
": : : 2 - o 2 1 1 1 : : : : 1 2 1 1 : : : : < 1 5 ~ @.~ ~ @.@.~ ~ } O.O.@.@.@.@.@.;.;.;.@.;.;.;.3.3.3.3.3.3.3.3.3.9 % 3 : 1 : : ",
": : : 2 - o 2 : : : 1 1 1 1 : : : : - : : 2 6 8 y ~ ~ r r ~ / ~ ~ ~ ~ ~ } @.@.@.@.;.;.;.;.;.;.;.@.3.3.3.3.3.3.3.3.9 & 3 : 1 : : ",
": 1 : 2 : o 2 : 2 1 1 : : - - & * : 2 5 y 8 y y y y y y 0 r j r ~ ~ ~ / ........@.@.@.;.;.;.@.;.@.3.3.3.3.3.3.3.3.y & 5 : 1 : : ",
": : : 2 : o 1 : 1 : - & & : 1 5 3 3 6 y y y 6 5 y y r y r j / / ..........@.@.@.@.@.@.@.@.;.@.;.1.3.3.3.3.3.3.3.3.y & 5 : : : : ",
": : : 2 : o 1 : & - 1 5 y y y y ~ C y 6 5 6 y 8 ~ / ........@.@.@.@.@.@.;.@.@.@.@.@.@.@.;.;.;.;.3.3.3.3.3.3.3.3.;.y - 5 - : : : ",
": 1 : 5 1 @ 3 : ~ ~ ~ ~ ~ ~ 8 8 9 8 ~ @.@.@.@.@.~ / @.@.@.....;.@.@.@.;.;.;.;.;.;.;.;.;.;.3.3.3.3.3.3.3.3.3.3.3.3.~ : 8 : 1 : 2 "
};
