/* XPM */
static char *_1e52afeb86f4d3f93b2f5abf334e0834rpgsyPaoYvggO97[] = {
/* columns rows colors chars-per-pixel */
"64 64 127 2 ",
"   c None",
".  c #010102",
"X  c #070709",
"o  c #0B0B0C",
"O  c #0F0F11",
"+  c #141415",
"@  c #1C1C1C",
"#  c #1F1F21",
"$  c #242424",
"%  c #272729",
"&  c #2C2C2C",
"*  c #2E2E30",
"=  c #333333",
"-  c #363638",
";  c #3B3B3C",
":  c #3F3F41",
">  c #434343",
",  c #474749",
"<  c #4B4B4C",
"1  c #4F4F51",
"2  c #525253",
"3  c #575759",
"4  c #5B5B5D",
"5  c #5E5E60",
"6  c #636365",
"7  c #666668",
"8  c #6A6A6B",
"9  c #6F6F71",
"0  c #737375",
"q  c #767678",
"w  c #7A7A7C",
"e  c #7F7F81",
"r  c #828284",
"t  c #878789",
"y  c #8C8C8C",
"u  c #8F8F91",
"i  c #929294",
"p  c #979799",
"a  c #9B9B9D",
"s  c #9F9FA1",
"d  c #A3A3A4",
"f  c #A7A7A9",
"g  c #ACACAD",
"h  c #AFAFB1",
"j  c #B3B3B3",
"k  c #B7B7B9",
"l  c #B6B6B9",
"z  c gray72",
"x  c #B9B9B9",
"c  c #B8B8BA",
"v  c #B9B9BB",
"b  c gray73",
"n  c #BABABC",
"m  c #BBBBBD",
"M  c #BCBCBC",
"N  c gray74",
"B  c #BCBCBE",
"V  c #BDBDBF",
"C  c gray",
"Z  c #BEBEC0",
"A  c #BFBFC1",
"S  c #BFBFC1",
"D  c #C0C0C0",
"F  c #C1C1C1",
"G  c #C0C0C2",
"H  c #C1C1C3",
"J  c gray76",
"K  c #C3C3C3",
"L  c #C2C2C4",
"P  c #C3C3C5",
"I  c gray77",
"U  c #C5C5C5",
"Y  c #C4C4C6",
"T  c #C5C5C7",
"R  c #C6C6C6",
"E  c gray78",
"W  c #C4C4C6",
"Q  c #C6C6C8",
"!  c #C7C7C9",
"~  c #C8C8C8",
"^  c gray79",
"/  c #C8C8CA",
"(  c #C9C9CB",
")  c #CACACA",
"_  c #CBCBCB",
"`  c #CACACC",
"'  c #CBCBCD",
"]  c #CCCCCE",
"[  c #CDCDCF",
"{  c #CECED0",
"}  c #CFCFD1",
"|  c #CFCFD1",
" . c #D0D0D2",
".. c #D1D1D3",
"X. c #D2D2D2",
"o. c #D2D2D4",
"O. c #D3D3D5",
"+. c gray83",
"@. c #D4D4D6",
"#. c #D5D5D7",
"$. c gray84",
"%. c #D7D7D7",
"&. c #D6D6D8",
"*. c #D7D7D9",
"=. c #D7D7DA",
"-. c #D7D7D9",
";. c #D8D8D8",
":. c #D8D8DA",
">. c #D9D9DB",
",. c #DADADC",
"<. c #DBDBDD",
"1. c #DCDCDE",
"2. c #DDDDDF",
"3. c #DFDFDF",
"4. c #DEDEE0",
"5. c #DFDFE1",
"6. c #E0E0E2",
"7. c #E1E1E3",
"8. c #E2E2E4",
"9. c #E3E3E5",
"0. c #E4E4E6",
"q. c #E5E5E7",
"w. c #E6E6E8",
"e. c #E8E8EA",
"r. c #E9E9EC",
"t. c #EEEEF0",
"y. c white",
/* pixels */
"                  3._ +.+.+.+.;.;.<.<.;.*.<.3.<.;.;.3.q.9.*.e.4.7.q.;.q.q.4.;.3.7.;.7.9.<.3.9.3.4.9.9.q.q.q.t.y.                ",
"                    F U F U U U A Q _ U Q ' ' Q Q ' d a s a d a s d d d a g X.X.' O.O.} +.*.+.+.*.*.*.;.;.<.w.                  ",
"                    F U F U U U _ [ } [ _ _ ' [ O.U 1 X . . . . . . . . . < U *.;.3.;.;.3.<.+.;.;.;.;.;.;.<.r.                  ",
"                    M U F _ U _ ' Q _ Q F x F } Q Q 3 + @ @ # # @ @ $ @ + 5 *.*.X.A U +.+.O.;.*.;.;.;.;.*.;.                    ",
"                    M U F U F F Q U L A x z M _ O.} 4 X X . . . . X . X . 4 X.X.U j z ' X.O.<.*.*.;.;.*.*.*.                    ",
"                    M F F U F F U ' Q m j j x M U A 3 . X . . . . . . o . 4 } } m j g A ;.3.*.;.*.;.<.<.;.                      ",
"                    z x x M M M k A m g i y a h ' Q 4 . + @ . . . . + + . 3 } X.a y y h O.+.} +.O.*.*.*.+.                      ",
"                    z z z x z z x m m f r 9 i L m F 2 . $ = . . . X - % . 2 } _ d w t A *.O.X.+.O.+.*.*.+.                      ",
"                    g j j g h x j z z j g g z M F x 2 . + @ X X o X @ + . 3 _ +.U U _ X.+.+.+.+.*.+.3.*.3.                      ",
"                    w i y i t y y y y t t t y i y t 3 $ & = & = % $ & & $ 3 a a a a d d f d d g g s g g h d                     ",
"                    X @ o + + + + + + + + + + + o + $ % % $ $ $ & = & = & $ $ + $ $ $ $ % & & = - > : ; : X                     ",
"                    X > ; ; ; ; = = - = = = = = ; & = ; & & = = & = % & ; = = > > ; > > < < < 2 1 2 , 4 5 ;                     ",
"                    . > = $ % $ $ $ % % & & & & * $ % = & % & % & = = = = = & = & & & = = & & & & & = ; 2 #                     ",
"                    . > % X o X o + + + + + + @ $ $ $ $ $ $ $ $ % $ $ $ + @ + + + + + + + o o X . O . > 2 %                     ",
"                    . > % + + + + + + + + + + + + + + + # # $ $ $ + $ $ @ $ $ $ + + + + + + + + + o + ; 3 $                     ",
"                    . < % + + + @ @ @ @ $ $ $ $ % % $ $ % % % % & $ & & $ $ $ $ $ $ $ @ @ @ @ @ o @ X ; 2 +                     ",
"                    . > & + + + @ @ # # $ $ $ $ $ $ % % & & & & % & & % % % % $ $ $ $ $ @ @ @ + + + + ; 3 +                     ",
"                    . > & + + + @ # $ $ $ $ $ $ $ % % % % % $ $ $ % % % & & % $ $ $ $ $ $ @ @ @ + + + ; 2 +                     ",
"                    . > = + + + @ $ $ $ $ $ $ $ % % % % % $ $ % $ $ $ $ % & & % $ $ $ $ $ $ @ @ + + + ; 2 o                     ",
"                    . > & + + + $ $ $ $ $ $ % % & % $ $ $ % & * & % % $ % % & & % $ $ $ $ $ $ @ + + @ ; 2 X                     ",
"                    . > = + + + $ $ $ $ $ $ % % % % $ $ % * = = = * & % $ $ % & % $ $ $ $ $ $ @ + + $ ; 2 X                     ",
"                    . > = @ + + $ $ $ $ % % % & % $ $ % & = = * = = = & % $ $ % % % % $ $ $ $ $ + @ $ ; 2 .                     ",
"                    . > = @ @ + $ $ $ $ % % & & $ $ % & = = * * = = = = & % % % % % % % $ $ $ $ @ $ % ; 2 .                     ",
"                    . > = $ @ + $ $ $ % % % & & $ % & = * = = = = = * = & % % % & % % % % $ $ $ @ $ % > 2 . g                   ",
"                    . ; = + @ @ @ $ $ % % % % % $ % % & * = = = = = & & & % % $ % % % $ $ $ $ @ $ $ & ; 2 . j                   ",
"                    . > = @ @ $ & = = = - ; - = = = = - - - - - ; = = = = = = = = - - = = = = * $ $ & ; 2 . j                   ",
"                    . > = @ @ @ & = = = = - = = = = = = = = = = = = = = = = = = = = = = = = = * $ $ & ; 2 . j                   ",
"                    . > = + + + $ % % % & & & % % & & & & = = = = = * & = * & % & & % % % % % $ $ $ & ; 2 . j                   ",
"                    . > = @ + + $ % % % & & & % % % & & = = = = = = & & = * & % & & & % % % % $ $ $ = ; 2 . j                   ",
"                    . > = @ + + $ % % % & & & & % & & = = = = = = = = = = = & & * = & & % % % % $ % = ; 2 . j                   ",
"                    . > = @ + + $ $ % % % & & % % % & & = = = = = = = = = = & % & & & % % % % $ $ $ = ; < . j                   ",
"                    . > = @ + + $ % & & & & * & $ % & & = = = = = = = = = = & % = = * & & & % % @ $ * ; < . j                   ",
"                    . > = + + + $ % % % % & & & % % & * = = = = = = = = & & & & = = & % & & & % @ $ = ; 2 . j                   ",
"                    . > = + + + $ $ % % % & & & & & & & & = = = = = = = & & & = = & & % % & % % @ $ & ; < . j                   ",
"                    . ; = @ + + $ $ $ % % % & & & & & & & & = = = = = & & & & = & & & & & & % $ # % = ; < . j                   ",
"                    . ; = $ + + $ $ % % % & & & * & & & & & = = = = & & & = = = * = * & * * & % @ % = ; < . j                   ",
"                    . ; = @ + + $ % & & & & * & = = = = = = = = = = = = = = = = = = = = = = = & @ $ & ; < . j                   ",
"                    . ; = @ + + % & & & & = = = = = = = = = = = = = = ; ; ; ; = = = = = ; ; - = $ % & = < . j                   ",
"                    . > = @ + + % % & & & * & & = = = = = = = ; ; ; ; ; = = = = ; = = = = ; = = % $ % = < . j                   ",
"                    . > = + + + $ % % % % & & & & = = = = = = ; ; ; = = = = = = = = = = = = = = $ @ $ = < . j                   ",
"                    . = ; o + o + + + + @ @ @ @ $ $ $ $ $ $ $ $ $ $ $ $ $ $ $ $ $ $ $ $ $ $ @ @ + + $ = > . g                   ",
"                    . ; = + o + + + + + @ @ @ @ @ @ $ # $ $ $ $ $ $ $ $ $ $ $ $ $ $ $ $ $ @ @ @ @ + % = 2 X g                   ",
"                    . > = + o + + + + @ $ $ $ $ $ $ $ $ $ $ $ $ $ $ $ $ $ $ $ $ % % $ $ $ $ $ $ @ $ + & < . j                   ",
"                    . ; & $ $ % % % & & = = = = = = = = = = = = = = = = = = = = = = = = = & & & $ & + = > . z                   ",
"                  a . ; = > = ; = ; ; ; ; ; ; ; = = = = ; ; ; ; ; ; ; ; ; ; ; ; ; ; ; ; ; ; ; ; ; ; ; > > X g                   ",
"                  d . > % = = % & & = = = * * = = = = = = = = = = = = = = = = = = = = = = = = = ; ; = ; ; . j                   ",
"                  p o = @ + & $ $ $ $ $ $ $ $ $ $ $ $ $ $ $ $ $ $ $ $ $ $ $ $ $ $ $ $ $ $ $ $ $ $ % @ % = + d                   ",
"                  6 = = = & % % % % % $ $ $ $ $ @ @ @ @ @ @ @ @ $ $ $ $ $ $ % % % % % % % $ $ $ & @ = % & = 7                   ",
"                e 9 3 : = = = * & = * & * * & & & & & & * & & * & & & & & & = = = & = = % % % $ & & * = ; < 6 9                 ",
"              p t w 6 < : - = = & * * * = = = = = = = = = = * = = = = = = = = = = = = * % $ $ $ % & & = ; < 4 7 p               ",
"            d r t w 8 3 , ; - = = * = - - - - - = = = = = = = = = = = = = = = = = = = & & $ $ $ % % * ; > 2 6 8 6 g             ",
"          g t u r e 0 6 3 < : ; = = ; : ; ; ; - - = = = = = = = = = = = = = = = = = = = = % $ $ $ & = > < 4 7 8 q 0             ",
"        A r u i t e q 8 6 3 , ; = = > , : ; ; ; ; ; - - - - - - = = = = = = = = = = = ; ; = $ % % = ; , 2 4 7 9 w w q           ",
"        t i t y y t w 0 8 6 1 > = ; , < > > > : : ; ; ; ; ; ; ; = = = = = = = = = ; ; ; ; = & % = ; < 2 4 6 9 q r r y i         ",
"      p a i a i y t r w 0 8 4 < > < 1 < , , > > > > : ; ; ; ; : ; ; ; ; ; ; ; > > > > ; ; ; ; = : , 2 4 7 9 0 w r y i p a       ",
"    w 0 w q w 0 0 0 0 9 8 6 3 < 2 4 3 < < < , > > > : : : ; ; ; > > > < < < 2 2 2 1 < < > < < ; < 1 3 4 6 8 9 0 0 r w r e p     ",
"  t * - - - ; = * ; * ; ; ; > , > , , , , > > > ; ; - - - ; ; ; > < < 2 3 3 4 4 3 3 2 < < > > > : > < > < < < 2 3 2 4 5 5 6 g   ",
"q X = X + . X > > , , > > > , : ; : : : : : ; ; ; ; ; ; ; ; : : ; ; > > > > > > < < < < < 2 2 2 4 5 2 4 4 6 4 6 6 > < < < 2 , d ",
"            d 2 = = < > = * = = = - - - - - = - - - - - - = - - = = = = = = = = = = = = ; ; ; ; - * : > > > 1 = 6 k     }   }   ",
"              *.a 8 4 6 4 1 < ; : : > : : : : : ; ; : : : ; ; ; ; ; ; ; ; ; ; ; > > > > > > > > 1 < 2 4 6 6 9 k                 ",
"                *.r > 6 7 7 8 8 7 7 8 7 7 7 7 7 7 7 8 8 8 7 7 7 7 7 7 7 6 7 7 7 6 6 7 7 7 7 7 8 6 q 6 5 8 @ g                   ",
"                U 4 X ; 2 4 5 4 5 5 5 5 5 4 4 4 4 4 4 5 4 4 4 4 4 4 4 4 4 4 4 4 4 4 4 4 4 4 4 4 4 4 5 2 - O h                   ",
"                d 4 @ * % $ % % % % % % % % % % % $ $ $ $ $ $ $ $ % % % % % % $ % % % % % % & & & $ $ # ; . a                   ",
"                t 2 & & % = * & & & & & * & & & * * & & & & * * & & & & & & & & & & & & & & & & & = % * ; . i                   "
};
