/* XPM */
static char *_ed2b37a847b4dee83f27ce9ef368b8fGhj9DrMWCWkPhhc4[] = {
/* columns rows colors chars-per-pixel */
"64 64 82 1 ",
"  c #010102",
". c #070709",
"X c #0B0B0B",
"o c #141415",
"O c #161618",
"+ c #1B1B1D",
"@ c #1F1F21",
"# c #242425",
"$ c #272729",
"% c #2C2C2C",
"& c #2E2E30",
"* c #333333",
"= c #373739",
"- c #3B3B3C",
"; c #3E3E40",
": c #434344",
"> c #474749",
", c #4A4A4C",
"< c #4F4F51",
"1 c #525254",
"2 c #575759",
"3 c #5B5B5C",
"4 c #5E5E60",
"5 c #636364",
"6 c #666668",
"7 c #6B6B6D",
"8 c #6F6F71",
"9 c #737374",
"0 c #777779",
"q c #7B7B7D",
"w c #7F7F81",
"e c #838384",
"r c #868688",
"t c #8B8B8C",
"y c #8F8F91",
"u c #939395",
"i c #979799",
"p c #9B9B9C",
"a c #9F9FA1",
"s c #A2A2A4",
"d c #A7A7A9",
"f c #AAAAAC",
"g c #ADADAF",
"h c #AFAFB1",
"j c #B0B0B2",
"k c #B3B3B5",
"l c #B5B5B7",
"z c #B7B7B9",
"x c #B9B9BB",
"c c #BBBBBD",
"v c #BDBDBF",
"b c #BEBEC0",
"n c #BFBFC1",
"m c #C1C1C3",
"M c #C2C2C4",
"N c #C4C4C6",
"B c #C6C6C8",
"V c #C9C9CB",
"C c #CBCBCD",
"Z c #CCCCCE",
"A c #CECED0",
"S c #CFCFD1",
"D c #D1D1D3",
"F c #D2D2D4",
"G c #D3D3D5",
"H c #D5D5D7",
"J c #D7D7D9",
"K c #D9D9DB",
"L c #DADADC",
"P c #DCDCDE",
"I c #DEDEE0",
"U c #E2E2E4",
"Y c #E3E3E4",
"T c #E3E3E5",
"R c #E7E7E9",
"E c #E9E9EB",
"W c #EAEAEC",
"Q c #ECECEE",
"! c #F1F1F3",
"~ c #F2F2F4",
"^ c #F4F4F4",
"/ c #F9F9F9",
/* pixels */
"ZZZAADDFDFFHJDHLDJLDJDLJPKLPUPJUIIIPPIIULLKFILLLKLLKKKLUIUIUUUI!",
"mMMMNBBBBCBBVBBVCVCVCVDguuuupuuppuuiiuuuCHDAHJDFFJJJKJHKHHHKJKHU",
"MMMNNBBBBCVNVCVBCNZZCBAr .  .           NKKLJKHUHJJHKJHHJKJLKLJE",
"MMMMNNBBNVVNVZBVzcBCZCJro%+O+++O++@#+@*-NHHFVvxDJLJHJJJLLLKLLLJE",
"mmmMMMNNNMBBVBcbhxmmZCHr #    .      .$*NHFmbjkNZHJHJJJLKKJKKLHR",
"mmmMMMMNBmBBBbggfgzlCBZr # .. .    . .$*NJAjkgjcmAJKKJHHKKJLKLJE",
"xxxcccccvxbvbxpurrsgNmBt # ##     .#o.#&cFNsurraNDJJJJHHHHFJJJHR",
"kkklllllzkczczurq9slNcbe #.==.    +;$.#*cFVjuqejAHHADFHHHHFJJKHR",
"jfhkkfjljzzkzxkgdzmxmbbe##$$#@+++@@@+#&=vFACBbFDFHJJJKKKKJIKKLHW",
"pqqreqeewqqqqq000000qqq2              .XetrtytpuppppppppsppsdipK",
"csappupuiuihgjgjgprrerrrttrrrrrrrrrrrrrreeqwetpdfddfspppaspsfdcQ",
"NAcpaappiufJKPJKJDFKHDVZCVBBNMbcccxxcccxxbbMvxxxvccvkspippapufHR",
"zBktyuuuuusAZZBVBNCBBBBVMmbvvcxzbvcxzzxxxxlxzzbzvxcckspiiupptsJ~",
"VNcsiuueeqwuttrtr96677778877890088999990900097tytttttewwerttudMU",
"mcmbvzzgssppppppi>    ..    .XoO##$%%&&**=***%edffffffffkzccCKLQ",
"mBBMZBNZBCVMVZCBZ5.$**&&=--;:>,<11122333444552zUHJJJJKKJUDIIJKKU",
"mMMNNNNBBBVVVVVVV6 %##%%**---:>><<11222233334,cKHHJJJJJJJLJKLLHE",
"mMMNNNNBBBVVVVVVN6 %##%%**---:>>,,<1222233344,cKHHJJJJJJJLJKLLHE",
"mMMMNNNBBBBVVVVVN6 %#$%%**=--:>>,,<1222233343>cKHHJJJJJJJLJKLLHE",
"mMMMMNNBBBBVVVVVN6 %#$%%***-;:>>,,<1222233333>xLHHJJJJJJJLJKLLHE",
"mmMMMNNBBBBBVVVVN6 %#$%%**=-::>>,,<1222222232>xLHHJJJJJJJLJKLLHE",
"mmMMMMNNBBBBBVVVN6 %#$%%**--::>>,,<1122222221:zPHHJJJJJJJLJKLLHE",
"mmMMMMNNBBBBBVVVN6 %#$%%**--::>>,,<111111111<-lPHHJJJJJJJLJKLLHE",
"mmMMMMNNBBBBBVVVN6 %#$%%**--::>>>>,11111<<11,-lPHHJJJJJJJLJKLLHE",
"bmMMMMNNNNNBBBBVN6 %#$%***---::>>,,<1111<<>,>*zKHJJKJJJKJLJKLLHE",
"bmMMMMNNNNNBBBBVN6 %#$%***---:>>>,,<1111<<>,>*zLHJJKJJJKJLJKLLHE",
"bmMMMMNNNNNBBBBVN6 %#$%***---::>>>,<111<<,>,>*zLHJJKJJJKJLJKLLHE",
"bmmMMMMNNNNBBBBBm5 %#$%&**----::>>>,,<,,,>:>:&lLHJJKJJJKJLJKLLHE",
"bbmmmMMMNNNNNBBBm5 %##%%**-----::>>>,,,>>>;:-%lLHJJKJJJKJLJKLLHE",
"vbmmmmMMMMMNNNNBm6 %#$%%**-----::>>>,,>>>>-;-%lLHJJKJJJKJLJKLLHE",
"vvbbmmmmMMMMNNNNm5 %#$%%**-----:::>>>>>>::---$kLHJJKJJJKJLJKLLHE",
"vvbbbbmmmMMMMNNNm5 %##%%**=-----:::>>>>::;--=$jLHJJKJJJKJLJKLLHE",
"vvbbbbbbmmMMMMMNm6 %#$%%***------;::>>::;---*#xLHHJJJJJJJKJKKKHE",
"vvvbbbbbmmmMMMMNm5 %#$%%***=------;::::;;---*#xLHHJJJJJJJKJKKKHE",
"vvvvvbbbbmmmmmMMb5 %#$%%%***-------;;;---=-=*#zLHHJJJJJJJKJKKKHE",
"cvvvvvvvbbmmmmmMv5 %#$%%%***=-------;----*-**@zKFHJJJJJJHKJKKKFE",
"ccccvvvvvbbbbbmmb5 %#$%%%****------------*=**@zKFHJJJJJJHKJJKKFE",
"ccccccvvvvbbbbbmv5 %#$%$%*****---------=*****+lKFHJJJJJJHKHJJJFE",
"xxcccccccvvvvvbbv5 %#$%$%%******======***&**&+lKFHHJJJJJHKHJJJFE",
"xxxccccccvvvvvbbv5 %#$$$%%******=********&**&+lJFHHJJHJJHKHJJJFE",
"zlzzzzzxccccvvvvc6 %+%##$%%****%****&&%%%&$%$OjIFFHHHHHHJKHJJKHE",
"zzzxxxxczxxxxxccj3 %O##%##$%%%%%&&%%%%%%$$#%$OgDDFFHHHHHFKJKKKDU",
"lkkkkkkkzzzxxxxcv3 %#%##$$%%****&%%%%%%%$%$&$OlPDFFHHHHJHKHKKKHE",
"kjjjkjkkkkkklllll1 $#$$%$$%%%%%%&%%%%%$$*%$%$+gAADFFFFHHDFDFHHDR",
"kjjklllzllzzzxxxx2O********=----=*******%**-%$kIDFFHHHHJJLKPPKHQ",
"sappapppaassssssa> ..                   .... ouNmMNNNNBBNBmMNBBU",
"sappppppuuuuuuuuprertertttttrtttuuuuuuuuutyiiugfdfffffffkjfhhkzH",
"CBNBVCCZZZZZZZZZVAHZDZFDDDDFDHHHHJJJKJKKIKKIPKIJKLLLLLLLJLKIILJ!",
"MMMNNBBBBBVVVVVVCCCCCZZZZZZZAAAAAAADDDDDFFFFFHHHHHHJJJJJJKJKLLHW",
"MMMNNNBBBBBVVVVVVCCCCZZZZZZZZAAADDDDFFFFHHHHHHHHHHHJJJJJJKJKLLHW",
"mmMMMNNNNBBBBBBVVVVCCCCCZZAAAAAADDDDFFFFHHHHHHHHHHJJJJJJJLJKKLHE",
"bmmmmMMMNNNNNNBBBBVVVVCCZZZZAAAAAADDDFFFHHHHHHHHJJJJJKKKJLJKKKHE",
"bbbmmmmMMMMMMNNNBBBBVVVVVVVCCCZZAAAADDFFFFFHHHHHJJJJJKKKJKJKKKHE",
"vvvvbbbbmmmmmmmmNNNNBBBBBBVVVCCCCZZAADDDDFFFFFHHHHHJJJJJHKHJJKFE",
"zzzxxxxccccccvvvbbmmmmMMNNNNBBBBVVVCCZZZAAADDDFFFFFHHHHHFJFJJJFR",
"kkkkkllllllzzzzzccccvvvvbbbmmmMMNNNBBVVCCCCZZAAADDFFFFFFFJFHJJFE",
"gxfljgljjjllllllllxxxcvvvvvbmmmmNNNVVCZZZZZDDDDDHHHHKKKKHHUPHUHU",
"s9eeeqeeeeeeeeeeeeeeeerrrtttttttttuuuuuuuuuuppppppppppppssppsppE",
"pX$.XoOo.XXXXXXX........                                 .. . -E",
"u :$*%%$%%%*****&%%%%%%%********************************-***:#2^",
"q -#%$%*%%%%%&&&******&&%%%%%%%%%%%%%%%%%%%%%%%%%%%%%%%%%$*&*.>/",
"2X*$***%$$$$%%%%$$$$$$$$%%%%%%%%$$%%%%%%&&%&&&&&%%%%&&&&$$$*;+:^",
">#*%$###$$$$$$$%%%%%%%%%$$$$$$$$$$$$$$$$$$$$$$$$$$$$$$$$$$#$%O*m",
"1%%%**-***************************************************--%&,f"
};
