/* XPM */
static char *_67f10b89b8c4a159884e6ce0eff76d1QadeNypgZO8gkvfe[] = {
/* columns rows colors chars-per-pixel */
"64 64 24 1 ",
"  c #DD0000",
". c black",
"X c white",
"o c #232323",
"O c #C9CACA",
"+ c gray74",
"@ c gray18",
"# c #D8D8D8",
"$ c #E43030",
"% c #FCE1E1",
"& c #ED7575",
"* c #F6BABA",
"= c #E11A1A",
"- c #DF0B0B",
"; c #FDF0F0",
": c #3C3C3C",
"> c #FFFEFE",
", c #F08F8F",
"< c gray24",
"1 c #EA5D5D",
"2 c #EA6060",
"3 c #FAD7D7",
"4 c #F8CBCB",
"5 c #F09191",
/* pixels */
"                                                                ",
"                                                                ",
"                                                                ",
"                                                                ",
"                                                                ",
"                                                                ",
"                                                                ",
"                            --====--                            ",
"                        -$2,*43%%34*,2$-                        ",
"                      $&*;>XXXX+OXXXX>;*&$                      ",
"                    $,%XXXXXXX+oo+XXXX>XX%5$                    ",
"                  =&%XXXXXXXX+o..o+XXXXXXXX%&=                  ",
"                 $*>XXXXXXXX+o....o+XXXXXXXXX*$                 ",
"                1%XXXXXXXXX+o......oOXXXXXXXXX%1                ",
"               &;XXXXXXXXX+o.......:#XXXXXXXXXX;&               ",
"              &;XXXXXXXXX+o.......:#XXXXXXXXXXXX;&              ",
"             1;XXXXXXXXX+o.......:#XXXXXXXXXXXXXX;1             ",
"            $%XXXXXXXXX+o.......:#XXXXXXXXXXXXXXXX%$            ",
"           =*XXXXXXXXX+o.......:#XXXXXXXOOXXXXXXXXX*=           ",
"           &>XXXXXXXX+o.......:#XXXXXXXO@o+XXXXXXXXX&           ",
"          $%XXXXXXXX+o.......:#XXXXXXXO@..o+XXXXXXXX%$          ",
"          ,XXXXXXXX+o.......:#XXXXXXXO@....o+XXXXXXXX,          ",
"         $%XXXXXXXOo.......@#XXXXXXXO@......o+XXXXXXX%$         ",
"         &XXXXXXXXO@.......@OXXXXXXO@........o+XXXXXXX&         ",
"        -*XXXXXXXXXO@.......@OXXXXO@..........o+XXXXXX*-        ",
"        $;XXXXXXXXXXO@.......@OXXO@............o+XXXX>;$        ",
"        2>XXXXXXXXXXXO@.......@OO@..............o+XXXX>2        ",
"        ,XXXXO#XXXXXXXO@.......oo.......@@.......o+XXXX,        ",
"       -*XXX+o:#XXXXXXXO@..............@O#<.......o+XXX*-       ",
"       -4XX+o..:#XXXXXXXO@............@OXX#<.......o+XX4-       ",
"       =3X+o....:#XXXXXXXO@..........@OXXXX#<.......o+X3=       ",
"       =%Oo......:#XXXXXXXOo........oOXXXXXX#<.......oO%=       ",
"       =%Oo.......:#XXXXXXOo........oOXXXXXXX#<......oO%=       ",
"       =3X+o.......:#XXXXO@..........@OXXXXXXX#<....o+X3=       ",
"       -4XX+o.......:#XXO@............@OXXXXXXX#<..o+XX4-       ",
"       -*XXX+o.......:#O@..............@OXXXXXXX#:o+XX>*        ",
"        ,XXXX+o.......@@.......oo.......@OXXXXXXX#OXXXX,        ",
"        2>XXXX+o..............@OO@.......@OXXXXXXXXXXX>2        ",
"        $;XXXXX+o............@OXXO@.......@OXXXXXXXXXX;$        ",
"        -*XXXXXX+o..........@OXXXXO@.......@OXXXXXXXXX*-        ",
"         &XXXXXXX+o........@OXXXXXXO@.......@OXXXXXXXX&         ",
"         $%XXXXXXX+o......@OXXXXXXX#@.......oOXXXXXXX%$         ",
"          ,XXXXXXXX+o....@OXXXXXXX#<.......o+XXXXXXXX,          ",
"          $%XXXXXXXX+o..@OXXXXXXX#<.......o+XXXXXXXX%$          ",
"           &>XXXXXXXX+o@OXXXXXXX#<.......o+XXXXXXXX>&           ",
"           =*XXXXXXXXXOOXXXXXXX#<.......o+XXXXXXXXX*=           ",
"            $%XXXXXXXXXXXXXXXX#<.......o+XXXXXXXXX%$            ",
"             1;XXXXXXXXXXXXXX#<.......o+XXXXXXXXX;1             ",
"              &;XXXXXXXXXXXX#<.......o+XXXXXXXXX;&              ",
"               &;XXXXXXXXXX#:.......o+XXXXXXXXX;&               ",
"                1%XXXXXXXXXOo......o+XXXXXXXXX%1                ",
"                 $*>XXXXXXXX+o....o+XXXXXXXX>*$                 ",
"                  =&%XXXXXXXX+o..o+XXXXXXXX%&=                  ",
"                    $,%XXXXXXX+oo+XXXXXXX%,$                    ",
"                      $&*;>XXXXOOXXXX>;*&$                      ",
"                        -$2,*43%%34*,2$-                        ",
"                            --====--                            ",
"                                                                ",
"                                                                ",
"                                                                ",
"                                                                ",
"                                                                ",
"                                                                ",
"                                                                "
};
