/* XPM */
static char *_1257a50434f4ca2c855fb4760b69d1cgotTRf5cGpVpkcYY[] = {
/* columns rows colors chars-per-pixel */
"64 64 113 2 ",
"   c #111125",
".  c #1B1B2E",
"X  c #241F2F",
"o  c #2B1F2F",
"O  c #2D1F30",
"+  c #262231",
"@  c #2B2131",
"#  c #2B2934",
"$  c #332331",
"%  c #3E2F35",
"&  c #3E3035",
"*  c #3F363B",
"=  c #452A39",
"-  c #532E3E",
";  c #413438",
":  c #56303C",
">  c #5E363C",
",  c #61373C",
"<  c #62383C",
"1  c #3D3544",
"2  c #403747",
"3  c #443F43",
"4  c #453C4C",
"5  c #483E4E",
"6  c #5F3140",
"7  c #613240",
"8  c #663E40",
"9  c #6E3C45",
"0  c #773545",
"q  c #783746",
"w  c #793846",
"e  c #7D3D48",
"r  c #494042",
"t  c #4A404F",
"y  c #544744",
"u  c #564845",
"i  c #544B4A",
"p  c #5C534F",
"a  c #4A4051",
"s  c #524757",
"d  c #564A5B",
"f  c #775A4F",
"g  c #705D50",
"h  c #6F5F70",
"j  c #823F46",
"k  c #803F48",
"l  c #844046",
"z  c #8B4547",
"x  c #8F4A46",
"c  c #824249",
"v  c #874A4D",
"b  c #8E4E4C",
"n  c #954C47",
"m  c #964D48",
"M  c #85554D",
"N  c #8F504E",
"B  c #8E5E4E",
"V  c #91524F",
"C  c #99534A",
"Z  c #9D5B4F",
"A  c #874B50",
"S  c #894E53",
"D  c #975951",
"F  c #9A5B51",
"G  c #8F6050",
"H  c #916251",
"J  c #9F6053",
"K  c #936857",
"L  c #A36655",
"P  c #A66956",
"I  c #A76B58",
"U  c #AB6F58",
"Y  c #AD7057",
"T  c #AE7259",
"R  c #AF795F",
"E  c #B0735A",
"W  c #B2795F",
"Q  c #AE7B62",
"!  c #B37C61",
"~  c #9F9078",
"^  c #A78868",
"/  c #AC8B6A",
"(  c #B58365",
")  c #BC8B6C",
"_  c #BE936E",
"`  c #B78E73",
"'  c #BA8F74",
"]  c #AC9276",
"[  c #B09371",
"{  c #C29770",
"}  c #C69F75",
"|  c #C59D7A",
" . c #C7A076",
".. c #C9A176",
"X. c #C7A17D",
"o. c #C8A379",
"O. c #CAA77D",
"+. c #CBAA7F",
"@. c #CCAA7F",
"#. c #BE9C80",
"$. c #BEA985",
"%. c #CDAB80",
"&. c #CFAE83",
"*. c #CDAB85",
"=. c #CEAE84",
"-. c #D0AF84",
";. c #CFB087",
":. c #CFB088",
">. c #D0B088",
",. c #D4B389",
"<. c #D2B48B",
"1. c #D7BE92",
"2. c #D8BE92",
/* pixels */
"X . . . . . . . . . . . . . . . . . . . . . . . . . . . . . . . . . . . . . . . . . . . . . . . . . . . . . . . . . . . . . . 1 ",
"+ * y u u u u u u u u u u u u u u u u u u u u u u u u u u u u u u u u u u u u u u u u u u u u u u u u u u u u u u u u i p i # 2 ",
"# g ^ / / / / / / / / / / / / / / / / / / / / / / / / / / / / / / / / / / / / / / / / / / / / / / / / / / / / / / / / [ $.~ 3 2 ",
"# f ( { ..........................................................................................................o.@.-.,.] r 4 ",
"# 8 Z ( } } } } } } } } } } } } } } } } } } } } } } } } } } } } } } } } } } } } } } } } } } } } } } } } } } } } } O.1.>.) K ; a ",
"@ , n I ( _ } } } } } } } } } } } } } } } } } } } } } } } } } } } } } } } } } } } } } } } } } } } } } } } } } o.@.&.;.X.( B & a ",
"@ < n C F ( }  .} } } } } } } } } } } } } } } } } } } } } } } } } } } } } } } } } } } } } } } } } } } } } } } O.1.<.) ! E G % a ",
"@ < n n m P ( _ } } } } } } } } } } } } } } } } } } } } } } } } } } } } } } } } } } } } } } } } } } } } } o.+.&.>.X.! U E G % a ",
"+ < n n m C F ! }  .} } } } } } } } } } } } } } } } } } } } } } } } } } } } } } } } } } } } } } } } } } } +.1.>.) ! E T E G % a ",
"+ < n n n n m P ( _ } } } } } } } } } } } } } } } } } } } } } } } } } } } } } } } } } } } } } } } } } o.@.&.:.X.! Y T T E G % a ",
"@ < n n n n m C F ! }  .} } } } } } } } } } } } } } } } } } } } } } } } } } } } } } } } } } } } } } } +.1.>.) ! E T T T E G % a ",
"@ < n n n n n n m P ( _ } } } } } } } } } } } } } } } } } } } } } } } } } } } } } } } } } } } } } o.@.&.:.| ! U T T T T E G % a ",
"@ < n n n n n n m C F ! }  .} } } } } } } } } } } } } } } } } } } } } } } } } } } } } } } } } } } +.1.>.) ! E T T T T T E G % a ",
"+ < n n n n n n n n n P ( _ } } } } } } } } } } } } } } } } } } } } } } } } } } } } } } } } } o.@.&.>.| ! U T T T T T T E G % a ",
"+ < n n n n n n n n m C Z ! }  .} } } } } } } } } } } } } } } } } } } } } } } } } } } } } } } +.1.>.) ! E T T T T T T T E G % a ",
"@ < n n n n n n n n n n n P ( _ } } } } } } } } } } } } } } } } } } } } } } } } } } } } } o.@.&.>.| ! Y T T T T T T T T E G % a ",
"@ < n n n n n n n n n n m C Z ! }  .} } } } } } } } } } } } } } } } } } } } } } } } } } } @.1.>.) ! E T T T T T T T T T E G % a ",
"@ < n n n n n n n n n n n n m L ( _ } } } } } } } } } } } } } } } } } } } } } } } } } o.@.&.:.| ! Y T T T T T T T T T T E G % a ",
"@ < n n n n n n n n n n n n m C Z ! {  .} } } } } } } } } } } } } } } } } } } } } } } @.1.:.) ! E T T T T T T T T T T T E G % a ",
"@ < n n n n n n n n n n n n n n n L ( _ } } } } } } } } } } } } } } } } } } } } } o.@.=.>.| ! Y T T T T T T T T T T T T E G % a ",
"@ < n n n n n n n n n n n n n n m C Z ! {  .} } } } } } } } } } } } } } } } } } } %.2.=.) ! E T T T T T T T T T T T T T E G % a ",
"+ < n n n n n n n n n n n n n n n n n L ( _ } } } } } } } } } } } } } } } } } o.@.=.>.| W Y T T T T T T T T T T T T T T E G % a ",
"@ < n n n n n n n n n n n n n n n n m C Z Q {  .} } } } } } } } } } } } } } } %.1.=.) ! E T T T T T T T T T T T T T T T E G % a ",
"+ < n n n n n n n n n n n n n n n n n n n L ( _ } } } } } } } } } } } } } o.@.=.:.| W Y T T T T T T T T T T T T T T T T E G % a ",
"@ < n n n n n n n n n n n n n n n n n n m C Z R {  .} } } } } } } } } } } %.1.=.) W E T T T T T T T T T T T T T T T T T E G % a ",
"@ < n n n n n n n n n n n n n n n n n n n n n L ( _ } } } } } } } } } o.@.=.:.| W Y T T T T T T T T T T T T T T T T T T E G % a ",
"+ < n n n n n n n n n n n n n n n n n n n n n C Z R {  .} } } } } } } &.2.=.) ! T T T T T T T T T T T T T T T T T T T T E G % a ",
"@ < n n n n n n n n n n n n n n n n n n n n n n n L ( _ } } } } } o.@.=.>.| W Y T T T T T T T T T T T T T T T T T T T T E G % a ",
"@ < n n n n n n n n n n n n n n n n n n n n n n n C Z R {  .} } } &.2.=.) ! T T T T T T T T T T T T T T T T T T T T T T E G % a ",
"@ < n n n n n n n n n n n n n n n n n n n n n n n n n L ( _ } o.+.=.>.| W Y T T T T T T T T T T T T T T T T T T T T T T E G % a ",
"@ < n n n n n n n n n n n n n n n n n n n n n n n n m C Z R { &.2.*.) W T T T T T T T T T T T T T T T T T T T T T T T T E G % a ",
"@ < n n n n n n n n n n n n n n n n n n n n n n n n n n n J Q ` #.' R T T T T T T T T T T T T T T T T T T T T T T T T T E G % a ",
"@ < n n n n n n n n n n n n n n n n n n n n n n n n n n n b v A S F U T T T T T T T T T T T T T T T T T T T T T T T T T E G % a ",
"+ < n n n n n n n n n n n n n n n n n n n n n n n n n n z j q 0 0 c F P T T T T T T T T T T T T T T T T T T T T T T T T E G % a ",
"@ < n n n n n n n n n n n n n n n n n n n n n n n n n z j w w w w e c V I T T T T T T T T T T T T T T T T T T T T T T T E G % a ",
"+ < n n n n n n n n n n n n n n n n n n n n n n n n z l w q w w w w q c F P U T T T T T T T T T T T T T T T T T T T T T E G % a ",
"@ < n n n n n n n n n n n n n n n n n n n n n n n z j w w w w w w w w e c V I T T T T T T T T T T T T T T T T T T T T T E G % a ",
"@ < n n n n n n n n n n n n n n n n n n n n n n z l w q w w w w w w w w q c F L U T T T T T T T T T T T T T T T T T T T E G % a ",
"+ < n n n n n n n n n n n n n n n n n n n n n z e w w w w w w w w w w w w e c V I T T T T T T T T T T T T T T T T T T T E G % a ",
"@ < n n n n n n n n n n n n n n n n n n n n z l w w w w w w w w w w w w w w q c F L U T T T T T T T T T T T T T T T T T E G % a ",
"@ < n n n n n n n n n n n n n n n n n n n z e w w w w w w w w w w w w w w w w e c V I T T T T T T T T T T T T T T T T T E G % a ",
"@ < n n n n n n n n n n n n n n n n n n z l w w w w w w w w w w w w w w w w w w q c F L U T T T T T T T T T T T T T T T E G % a ",
"@ < n n n n n n n n n n n n n n n n n z e w w w w w w w w w w w w w w w w w w w w e c V P T T T T T T T T T T T T T T T E G % a ",
"@ < n n n n n n n n n n n n n n n n z l w w w w w w w w w w w w w w w w w w w w w w q c F L U T T T T T T T T T T T T T E G % a ",
"@ < n n n n n n n n n n n n n n n z e w w w w w w w w w w w w w w w w w w w w w w w w e c V P T T T T T T T T T T T T T E G % a ",
"+ < n n n n n n n n n n n n n n z j w q w w w w w w w w w w w w w w w w w w w w w w w w q c F L U T T T T T T T T T T T E G % a ",
"@ < n n n n n n n n n n n n n z e w w w w w w w w w w w w w w w w w w w w w w w w w w w w e c N P T T T T T T T T T T T E G % a ",
"+ < n n n n n n n n n n n n z j w w w w w w w w w w w w w w w w w w w w w w w w w w w w w w q c F L U T T T T T T T T T E G % a ",
"@ < n n n n n n n n n n n z e w w w w w w w w w w w w w w w w w w w w w w w w w w w w w w w w e c N P T T T T T T T T T E G % a ",
"@ < n n n n n n n n n n z j w w w w w w w w w w w w w w w w w w w w w w w w w w w w w w w w w w q c F L U T T T T T T T E G % a ",
"+ < n n n n n n n n n z e w w w w w w w w w w w w w w w w w w w w w w w w w w w w w w w w w w w w w c N P T T T T T T T E G % a ",
"@ < n n n n n n n n z j w w w w w w w w w w w w w w w w w w w w w w w w w w w w w w w w w w w w w w q c D L U T T T T T E G % a ",
"@ < n n n n n n n z e w w w w w w w w w w w w w w w w w w w w w w w w w w w w w w w w w w w w w w w w w c b P T T T T T E G % a ",
"@ < n n n n n n z j w w w w w w w w w w w w w w w w w w w w w w w w w w w w w w w w w w w w w w w w w w q c D L U T T T E G % a ",
"@ < n n n n n z e w w w w w w w w w w w w w w w w w w w w w w w w w w w w w w w w w w w w w w w w w w w w e k b P T T T E G % a ",
"@ < n n n n z j w w w w w w w w w w w w w w w w w w w w w w w w w w w w w w w w w w w w w w w w w w w w w w q c D L U T E G % a ",
"@ < n n n z e w w w w w w w w w w w w w w w w w w w w w w w w w w w w w w w w w w w w w w w w w w w w w w w w w c b P T E G % a ",
"+ < x n z j w w w w w w w w w w w w w w w w w w w w w w w w w w w w w w w w w w w w w w w w w w w w w w w w w w q c D L U G % a ",
"+ < x z e w w w w w w w w w w w w w w w w w w w w w w w w w w w w w w w w w w w w w w w w w w w w w w w w w w w w w c b P H % a ",
"+ > z j w w w w w w w w w w w w w w w w w w w w w w w w w w w w w w w w w w w w w w w w w w w w w w w w w w w w w w 0 c F M % a ",
"+ : w w w w w w w w w w w w w w w w w w w w w w w w w w w w w w w w w w w w w w w w w w w w w w w w w w w w w w w w w w c 9 $ a ",
"+ = 6 7 7 7 7 7 7 7 7 7 7 7 7 7 7 7 7 7 7 7 7 7 7 7 7 7 7 7 7 7 7 7 7 7 7 7 7 7 7 7 7 7 7 7 7 7 7 7 7 7 7 7 7 7 7 7 7 7 7 - o a ",
". X @ @ @ @ @ @ @ @ @ @ @ @ @ @ @ @ @ @ @ @ @ @ @ @ @ @ @ @ @ @ @ @ @ @ @ @ @ @ @ @ @ @ @ @ @ @ @ @ @ @ @ @ @ @ @ @ @ @ O o   5 ",
"5 t t t t t t t t t t t t t t t t t t t t t t t t t t t t 5 5 5 5 5 5 5 5 5 5 5 5 5 5 5 5 5 5 5 5 5 5 5 5 5 5 5 5 5 5 a s d s h "
};
